<svg width="165" height="368" viewBox="0 0 165 368" fill="none" xmlns="http://www.w3.org/2000/svg">
<g clip-path="url(#clip0)">
<path d="M164.94 118.25H0V135H164.94V118.25Z" fill="#FABD28"/>
<path d="M164.94 235.72H0V252.47H164.94V235.72Z" fill="#FABD28"/>
<path d="M164.94 268.24H0V284.99H164.94V268.24Z" fill="#FABD28"/>
<path d="M139.74 102.49H123.97V235.73H139.74V102.49Z" fill="#FABD28"/>
<path d="M164.95 102.49H149.18V118.26H164.95V102.49Z" fill="#FABD28"/>
<path d="M164.95 86.72H149.18V102.49H164.95V86.72Z" fill="#FABD28"/>
<path d="M131.86 252.48H116.09V268.25H131.86V252.48Z" fill="#FABD28"/>
<path d="M164.95 252.48H149.18V268.25H164.95V252.48Z" fill="#FABD28"/>
<path d="M164.95 285H149.18V367.59H164.95V285Z" fill="#FABD28"/>
<path d="M103.87 302.01H88.1V367.59H103.87V302.01Z" fill="#FABD28"/>
<path d="M75.87 302.01H60.1V367.59H75.87V302.01Z" fill="#FABD28"/>
<path d="M47.88 302.01H32.11V367.59H47.88V302.01Z" fill="#FABD28"/>
<path d="M131.86 302.01H116.09V367.59H131.86V302.01Z" fill="#FABD28"/>
<path d="M75.87 252.48H60.1V268.25H75.87V252.48Z" fill="#FABD28"/>
<path d="M103.87 252.48H88.1V268.25H103.87V252.48Z" fill="#FABD28"/>
<path d="M47.88 252.48H32.11V268.25H47.88V252.48Z" fill="#FABD28"/>
<path d="M15.77 252.48H0V268.25H15.77V252.48Z" fill="#FABD28"/>
<path d="M15.77 285H0V367.59H15.77V285Z" fill="#FABD28"/>
<path d="M15.77 86.72H0V102.49H15.77V86.72Z" fill="#FABD28"/>
<path d="M164.95 135.01H149.18V235.73H164.95V135.01Z" fill="#FABD28"/>
<path d="M15.77 135.01H0V235.73H15.77V135.01Z" fill="#FABD28"/>
<path d="M115.58 39.42H99.81V55.19H115.58V39.42Z" fill="#FABD28"/>
<path d="M89.53 15.77H73.76V31.54H89.53V15.77Z" fill="#FABD28"/>
<path d="M89.53 0H73.76V15.77H89.53V0Z" fill="#FABD28"/>
<path d="M105.29 31.54H89.52V47.31H105.29V31.54Z" fill="#FABD28"/>
<path d="M92.27 174.37H72.83V193.81H92.27V174.37Z" fill="#FABD28"/>
<path d="M73.76 31.54H57.99V47.31H73.76V31.54Z" fill="#FABD28"/>
<path d="M115.58 23.65H99.81V39.42H115.58V23.65Z" fill="#FABD28"/>
<path d="M63.64 39.42H47.87V55.19H63.64V39.42Z" fill="#FABD28"/>
<path d="M63.64 23.65H47.87V39.42H63.64V23.65Z" fill="#FABD28"/>
<path d="M115.58 70.95H99.81V86.72H115.58V70.95Z" fill="#FABD28"/>
<path d="M63.64 70.95H47.87V86.72H63.64V70.95Z" fill="#FABD28"/>
<path d="M115.57 86.72H47.87V102.49H115.57V86.72Z" fill="#FABD28"/>
<path d="M115.57 55.1899H47.87V70.9599H115.57V55.1899Z" fill="#FABD28"/>
<path d="M42.66 102.49H26.89V235.73H42.66V102.49Z" fill="#FABD28"/>
<path d="M15.77 102.49H0V118.26H15.77V102.49Z" fill="#FABD28"/>
<path d="M100.68 152.37H64.41V161.48H100.68V152.37Z" fill="#FABD28"/>
<path d="M100.68 205.87H64.41V214.98H100.68V205.87Z" fill="#FABD28"/>
<path d="M109.84 161.48H100.68V170.64H109.84V161.48Z" fill="#FABD28"/>
<path d="M109.84 196.71H100.68V205.87H109.84V196.71Z" fill="#FABD28"/>
<path d="M64.27 196.71H55.11V205.87H64.27V196.71Z" fill="#FABD28"/>
<path d="M64.41 161.48H55.25V170.64H64.41V161.48Z" fill="#FABD28"/>
<path d="M55.11 170.64H45.95V196.71H55.11V170.64Z" fill="#FABD28"/>
<path d="M119 170.64H109.84V196.71H119V170.64Z" fill="#FABD28"/>
</g>
<defs>
<clipPath id="clip0">
<rect width="164.95" height="367.59" fill="white"/>
</clipPath>
</defs>
</svg>
