<svg width="418" height="283" viewBox="0 0 418 283" fill="none" xmlns="http://www.w3.org/2000/svg">
<g clip-path="url(#clip0)">
<mask id="mask0" mask-type="alpha" maskUnits="userSpaceOnUse" x="0" y="0" width="431" height="297">
<rect width="431" height="297" fill="#C4C4C4"/>
</mask>
<g mask="url(#mask0)">
<path d="M396.45 6.58002H29.47V32.07H396.45V6.58002Z" fill="#222"/>
<path d="M396.45 258.88H29.47V281.82H396.45V258.88Z" fill="#222"/>
<path d="M419.4 258.88V29.51H396.46V258.88H419.4Z" fill="#222"/>
<path d="M29.48 258.88L29.48 29.51H6.54001L6.54001 258.88H29.48Z" fill="#222"/>
<path d="M419.39 29.52V52.45H373.52V6.58002H396.46V29.52H419.39Z" fill="#222"/>
<path d="M419.39 258.88V235.95H373.52V281.82H396.46V258.88H419.39Z" fill="#222"/>
<path d="M6.53998 258.88V235.95H52.41V281.82H29.47V258.88H6.53998Z" fill="#222"/>
<path d="M373.53 190.07H350.59V213.01H373.53V190.07Z" fill="#222"/>
<path d="M396.46 213.01H373.52V235.95H396.46V213.01Z" fill="#222"/>
<path d="M350.59 167.14H327.65V190.08H350.59V167.14Z" fill="#222"/>
<path d="M327.65 144.2H304.71V167.14H327.65V144.2Z" fill="#222"/>
<path d="M75.35 52.45H52.41V75.39H75.35V52.45Z" fill="#222"/>
<path d="M98.29 75.39H75.35V98.33H98.29V75.39Z" fill="#222"/>
<path d="M121.22 98.33H98.28V121.27H121.22V98.33Z" fill="#222"/>
<path d="M144.16 121.26H121.22V144.2H144.16V121.26Z" fill="#222"/>
<path d="M167.1 144.2H144.16V167.14H167.1V144.2Z" fill="#222"/>
<path d="M190.03 167.14H167.09V190.08H190.03V167.14Z" fill="#222"/>
<path d="M373.53 52.45H350.59V75.39H373.53V52.45Z" fill="#222"/>
<path d="M350.59 75.39H327.65V98.33H350.59V75.39Z" fill="#222"/>
<path d="M327.65 98.33H304.71V121.27H327.65V98.33Z" fill="#222"/>
<path d="M304.72 121.26H281.78V144.2H304.72V121.26Z" fill="#222"/>
<path d="M281.78 144.2H258.84V167.14H281.78V144.2Z" fill="#222"/>
<path d="M258.84 167.14H235.9V190.08H258.84V167.14Z" fill="#222"/>
<path d="M235.91 190.07H212.97V213.01H235.91V190.07Z" fill="#222"/>
<path d="M212.97 190.07H190.03V213.01H212.97V190.07Z" fill="#222"/>
<path d="M98.29 167.14H75.35V190.08H98.29V167.14Z" fill="#222"/>
<path d="M121.22 144.2H98.28V167.14H121.22V144.2Z" fill="#222"/>
<path d="M75.35 190.07H52.41V213.01H75.35V190.07Z" fill="#222"/>
<path d="M52.41 213.01H29.47V235.95H52.41V213.01Z" fill="#222"/>
<path d="M52.41 6.58002V52.45H6.53998V29.52H29.47V6.58002H52.41Z" fill="#222"/>
</g>
</g>
<defs>
<clipPath id="clip0">
<rect width="418" height="283" fill="#222"/>
</clipPath>
</defs>
</svg>
