<svg width="283" height="337" viewBox="0 0 283 337" fill="none" xmlns="http://www.w3.org/2000/svg">
<g clip-path="url(#clip0)">
<path d="M214.44 173.68H69.84V191.64H214.44V173.68Z" fill="#FF0400"/>
<path d="M230.25 102.7H52.38V120.66H230.25V102.7Z" fill="#FF0400"/>
<path d="M282.65 318.32H0V336.28H282.65V318.32Z" fill="#FF0400"/>
<path d="M69.84 191.65H52.38V209.11H69.84V191.65Z" fill="#FF0400"/>
<path d="M87.3 57.51H69.84V333.43H87.3V57.51Z" fill="#FF0400"/>
<path d="M214.44 58.41H196.98V334.33H214.44V58.41Z" fill="#FF0400"/>
<path d="M52.38 200.38H34.92V217.84H52.38V200.38Z" fill="#FF0400"/>
<path d="M34.92 137.87H17.46V226.57H34.92V137.87Z" fill="#FF0400"/>
<path d="M52.38 29.87H34.92V120.22H52.38V29.87Z" fill="#FF0400"/>
<path d="M17.46 217.84H0V336.28H17.46V217.84Z" fill="#FF0400"/>
<path d="M230.26 187.64H212.8V205.1H230.26V187.64Z" fill="#FF0400"/>
<path d="M52.38 120.42H34.92V137.88H52.38V120.42Z" fill="#FF0400"/>
<path d="M247.72 196.37H230.26V213.83H247.72V196.37Z" fill="#FF0400"/>
<path d="M239.81 149.66H222.35V175.85H239.81V149.66Z" fill="#FF0400"/>
<path d="M174.36 0H148.17V17.46H174.36V0Z" fill="#FF0400"/>
<path d="M150.87 73.23H133.41V95.7H150.87V73.23Z" fill="#FF0400"/>
<path d="M148.17 0.0899658H136.11V34.84H148.17V0.0899658Z" fill="#FF0400"/>
<path d="M227.38 74.98H217.31V93.96H227.38V74.98Z" fill="#FF0400"/>
<path d="M66.15 74.98H56.08V93.96H66.15V74.98Z" fill="#FF0400"/>
<path d="M150.05 129.94H132.59V164.4H150.05V129.94Z" fill="#FF0400"/>
<path d="M157.54 234.94H126.73V321.3H157.54V234.94Z" fill="#FF0400"/>
<path d="M254.39 244H231.08V306.12H254.39V244Z" fill="#FF0400"/>
<path d="M55.3 244H31.99V306.12H55.3V244Z" fill="#FF0400"/>
<path d="M61.11 149.66H43.65V175.85H61.11V149.66Z" fill="#FF0400"/>
<path d="M247.72 120.42H230.26V137.88H247.72V120.42Z" fill="#FF0400"/>
<path d="M235.72 48.78H48.25V66.24H235.72V48.78Z" fill="#FF0400"/>
<path d="M150.87 48.78H133.41V66.24H150.87V48.78Z" fill="#FF0400"/>
<path d="M87.31 48.78H69.85V66.24H87.31V48.78Z" fill="#FF0400"/>
<path d="M265.18 137.88H247.72V222.57H265.18V137.88Z" fill="#FF0400"/>
<path d="M247.72 29.87H230.26V120.66H247.72V29.87Z" fill="#FF0400"/>
<path d="M282.64 213.84H265.18V336.29H282.64V213.84Z" fill="#FF0400"/>
</g>
<defs>
<clipPath id="clip0">
<rect width="282.65" height="336.29" fill="white"/>
</clipPath>
</defs>
</svg>
