<svg width="338" height="356" viewBox="0 0 338 356" fill="none" xmlns="http://www.w3.org/2000/svg">
<g clip-path="url(#clip0)">
<path d="M248.93 0H106.68V17.78H248.93V0Z" fill="#FF0000"/>
<path d="M284.49 17.78H71.12V35.56H284.49V17.78Z" fill="#FF0000"/>
<path d="M266.71 35.56H35.56V53.34H266.71V35.56Z" fill="#FF0000"/>
<path d="M248.93 53.34H231.15V71.12H248.93V53.34Z" fill="#FF0000"/>
<path d="M106.68 53.34H17.78V71.12H106.68V53.34Z" fill="#FF0000"/>
<path d="M88.9 71.12H17.78V88.9H88.9V71.12Z" fill="#FF0000"/>
<path d="M71.12 88.9H35.56V106.68H71.12V88.9Z" fill="#FF0000"/>
<path d="M71.12 106.68H53.34V213.37H71.12V106.68Z" fill="#FFFF00"/>
<path d="M53.34 106.68H35.56V213.37H53.34V106.68Z" fill="#FFFF00"/>
<path d="M35.56 88.9H17.78V231.15H35.56V88.9Z" fill="#FFFF00"/>
<path d="M17.78 71.12H0V248.93H17.78V71.12Z" fill="#FFFF00"/>
<path d="M35.56 231.15H17.78V284.49H35.56V231.15Z" fill="#22B073"/>
<path d="M53.34 213.37H35.56V302.27H53.34V213.37Z" fill="#22B073"/>
<path d="M71.12 213.37H53.34V320.06H71.12V213.37Z" fill="#22B073"/>
<path d="M88.9 231.15H71.12V337.84H88.9V231.15Z" fill="#22B073"/>
<path d="M106.68 248.93H88.9V337.83H106.68V248.93Z" fill="#22B073"/>
<path d="M248.93 248.93H231.15V337.83H248.93V248.93Z" fill="#22B073"/>
<path d="M266.71 266.71H248.93V337.83H266.71V266.71Z" fill="#22B073"/>
<path d="M284.49 320.06H266.71V337.84H284.49V320.06Z" fill="#22B073"/>
<path d="M231.15 284.49H106.68V355.61H231.15V284.49Z" fill="#22B073"/>
<path d="M320.05 266.71H266.71V320.05H320.05V266.71Z" fill="#0071B7"/>
<path d="M337.83 231.15H248.93V266.71H337.83V231.15Z" fill="#0071B7"/>
<path d="M337.83 195.59H266.71V231.15H337.83V195.59Z" fill="#0071B7"/>
<path d="M337.84 160.03H177.81V213.37H337.84V160.03Z" fill="#0071B7"/>
</g>
<defs>
<clipPath id="clip0">
<rect width="337.84" height="355.61" fill="white"/>
</clipPath>
</defs>
</svg>
