<svg width="442" height="402" viewBox="0 0 442 402" fill="none" xmlns="http://www.w3.org/2000/svg">
<g clip-path="url(#clip0)">
<path d="M20.06 160.51H0V401.27H20.06V160.51Z" fill="#0071B7"/>
<path d="M140.44 160.51H120.38V401.27H140.44V160.51Z" fill="#0071B7"/>
<path d="M140.45 160.51H0V180.57H140.45V160.51Z" fill="#0071B7"/>
<path d="M140.45 381.21H0V401.27H140.45V381.21Z" fill="#0071B7"/>
<path d="M100.31 341.08H80.25V361.14H100.31V341.08Z" fill="#0071B7"/>
<path d="M200.63 361.14H138.21V381.2H200.63V361.14Z" fill="#0071B7"/>
<path d="M421.33 381.21H200.63V401.27H421.33V381.21Z" fill="#0071B7"/>
<path d="M441.39 341.08H421.33V381.21H441.39V341.08Z" fill="#0071B7"/>
<path d="M441.39 280.89H421.33V321.02H441.39V280.89Z" fill="#0071B7"/>
<path d="M441.39 220.7H421.33V260.83H441.39V220.7Z" fill="#0071B7"/>
<path d="M441.39 160.51H421.33V200.64H441.39V160.51Z" fill="#0071B7"/>
<path d="M421.34 321.02H381.21V341.08H421.34V321.02Z" fill="#0071B7"/>
<path d="M421.34 260.82H381.21V280.88H421.34V260.82Z" fill="#0071B7"/>
<path d="M421.34 200.63H381.21V220.69H421.34V200.63Z" fill="#0071B7"/>
<path d="M421.33 140.44H260.82V160.5H421.33V140.44Z" fill="#0071B7"/>
<path d="M260.82 120.38H240.76V160.51H260.82V120.38Z" fill="#0071B7"/>
<path d="M280.88 100.32H260.82V120.38H280.88V100.32Z" fill="#0071B7"/>
<path d="M220.69 60.19H200.63V80.25H220.69V60.19Z" fill="#0071B7"/>
<path d="M200.63 80.25H180.57V100.31H200.63V80.25Z" fill="#0071B7"/>
<path d="M180.57 100.32H160.51V120.38H180.57V100.32Z" fill="#0071B7"/>
<path d="M180.57 120.38H160.51V140.44H180.57V120.38Z" fill="#0071B7"/>
<path d="M160.5 140.44H140.44V160.5H160.5V140.44Z" fill="#0071B7"/>
<path d="M280.89 0H240.76V20.06H280.89V0Z" fill="#0071B7"/>
<path d="M300.95 20.06H280.89V100.31H300.95V20.06Z" fill="#0071B7"/>
<path d="M240.76 20.06H220.7V60.19H240.76V20.06Z" fill="#0071B7"/>
</g>
<defs>
<clipPath id="clip0">
<rect width="441.39" height="401.27" fill="white"/>
</clipPath>
</defs>
</svg>
