<svg width="314" height="423" viewBox="0 0 314 423" fill="none" xmlns="http://www.w3.org/2000/svg">
<g clip-path="url(#clip0)">
<path d="M192.813 12.116L180.774 36.2834L204.942 48.3224L216.98 24.1549L192.813 12.116Z" fill="#222"/>
<path d="M156.604 24.2503L144.565 48.4177L168.732 60.4566L180.771 36.2892L156.604 24.2503Z" fill="#222"/>
<path d="M24.1706 290.105L12.1317 314.272L36.2991 326.311L48.338 302.143L24.1706 290.105Z" fill="#222"/>
<path d="M120.398 36.3837L0.000396729 278.076L24.1678 290.115L144.566 48.4226L120.398 36.3837Z" fill="#222"/>
<path d="M36.3048 326.314L24.2659 350.481L48.4334 362.52L60.4723 338.353L36.3048 326.314Z" fill="#222"/>
<path d="M168.818 120.83L96.58 265.844L120.747 277.882L192.985 132.869L168.818 120.83Z" fill="#222"/>
<path d="M289.489 60.2725L277.45 84.4399L301.617 96.4788L313.656 72.3114L289.489 60.2725Z" fill="#222"/>
<path d="M277.45 84.4454L265.411 108.613L289.579 120.652L301.618 96.4843L277.45 84.4454Z" fill="#222"/>
<path d="M145.011 350.291L132.972 374.458L157.14 386.497L169.179 362.33L145.011 350.291Z" fill="#222"/>
<path d="M132.973 374.464L120.934 398.631L145.101 410.67L157.14 386.503L132.973 374.464Z" fill="#222"/>
<path d="M157.055 326.127L145.017 350.294L169.184 362.333L181.223 338.166L157.055 326.127Z" fill="#222"/>
<path d="M265.406 108.619L253.367 132.787L277.535 144.826L289.573 120.658L265.406 108.619Z" fill="#222"/>
<path d="M229.012 0.00481004L216.973 24.1722L289.484 60.2934L301.523 36.126L229.012 0.00481004Z" fill="#222"/>
<path d="M180.857 96.6761L168.818 120.844L241.329 156.965L253.368 132.797L180.857 96.6761Z" fill="#222"/>
<path d="M96.5698 265.845L84.5309 290.012L157.042 326.133L169.081 301.966L96.5698 265.845Z" fill="#222"/>
<path d="M48.4177 362.522L36.3788 386.689L108.89 422.81L120.929 398.643L48.4177 362.522Z" fill="#222"/>
</g>
<defs>
<clipPath id="clip0">
<rect width="313.66" height="422.81" fill="#222"/>
</clipPath>
</defs>
</svg>
