<svg fill="none" height="423" viewBox="0 0 314 423" width="314" xmlns="http://www.w3.org/2000/svg" xmlns:xlink="http://www.w3.org/1999/xlink"><clipPath id="a"><path d="m0 0h313.66v422.81h-313.66z"/></clipPath><g clip-path="url(#a)" fill="#fff"><path d="m192.813 12.116-12.039 24.1674 24.168 12.039 12.038-24.1675z"/><path d="m156.604 24.2503-12.039 24.1674 24.167 12.0389 12.039-24.1674z"/><path d="m24.1706 290.105-12.0389 24.167 24.1674 12.039 12.0389-24.168z"/><path d="m120.398 36.3837-120.39760327 241.6923 24.16740327 12.039 120.3982-241.6924z"/><path d="m36.3048 326.314-12.0389 24.167 24.1675 12.039 12.0389-24.167z"/><path d="m168.818 120.83-72.238 145.014 24.167 12.038 72.238-145.013z"/><path d="m289.489 60.2725-12.039 24.1674 24.167 12.0389 12.039-24.1674z"/><path d="m277.45 84.4454-12.039 24.1676 24.168 12.039 12.039-24.1677z"/><path d="m145.011 350.291-12.039 24.167 24.168 12.039 12.039-24.167z"/><path d="m132.973 374.464-12.039 24.167 24.167 12.039 12.039-24.167z"/><path d="m157.055 326.127-12.038 24.167 24.167 12.039 12.039-24.167z"/><path d="m265.406 108.619-12.039 24.168 24.168 12.039 12.038-24.168z"/><path d="m229.012.00481004-12.039 24.16738996 72.511 36.1212 12.039-24.1674z"/><path d="m180.857 96.6761-12.039 24.1679 72.511 36.121 12.039-24.168z"/><path d="m96.5698 265.845-12.0389 24.167 72.5111 36.121 12.039-24.167z"/><path d="m48.4177 362.522-12.0389 24.167 72.5112 36.121 12.039-24.167z"/></g></svg>