<svg width="214" height="445" viewBox="0 0 214 445" fill="none" xmlns="http://www.w3.org/2000/svg">
<g clip-path="url(#clip0)">
<path d="M107.12 203.37H14.09V296.4H107.12V203.37Z" fill="#22B073"/>
<path d="M107.12 110.34H14.09V203.37H107.12V110.34Z" fill="#22B073"/>
<path d="M200.15 110.34H107.12V203.37H200.15V110.34Z" fill="#22B073"/>
<path d="M153.64 203.37H60.61V296.4H153.64V203.37Z" fill="#22B073"/>
<path d="M200.15 203.37H107.12V296.4H200.15V203.37Z" fill="#22B073"/>
<path d="M107.12 203.37H60.61V249.88H107.12V203.37Z" fill="white"/>
<path d="M107.12 156.86H60.61V203.37H107.12V156.86Z" fill="white"/>
<path d="M153.63 156.86H107.12V203.37H153.63V156.86Z" fill="white"/>
<path d="M153.63 203.37H107.12V249.88H153.63V203.37Z" fill="white"/>
<path d="M153.64 56.78H60.61V103.29H153.64V56.78Z" fill="#22B073"/>
<path d="M128.04 21.54H85.75V63.83H128.04V21.54Z" fill="#22B073"/>
<path d="M117.9 0H96.36V21.54H117.9V0Z" fill="#22B073"/>
<path d="M213.78 148.4H171.49V190.69H213.78V148.4Z" fill="#22B073"/>
<path d="M213.78 190.69H171.49V232.98H213.78V190.69Z" fill="#22B073"/>
<path d="M213.78 228.27H171.49V270.56H213.78V228.27Z" fill="#22B073"/>
<path d="M42.29 150.75H0V193.04H42.29V150.75Z" fill="#22B073"/>
<path d="M42.29 193.03H0V235.32H42.29V193.03Z" fill="#22B073"/>
<path d="M42.29 230.62H0V272.91H42.29V230.62Z" fill="#22B073"/>
<path d="M117.46 195.38H96.32V216.52H117.46V195.38Z" fill="#22B073"/>
<path d="M72.83 305.8H32.89V444.41H72.83V305.8Z" fill="#22B073"/>
<path d="M126.86 305.8H86.92V444.41H126.86V305.8Z" fill="#22B073"/>
<path d="M180.89 305.8H140.95V444.41H180.89V305.8Z" fill="#22B073"/>
</g>
<defs>
<clipPath id="clip0">
<rect width="213.78" height="444.41" fill="white"/>
</clipPath>
</defs>
</svg>
