<svg width="1681" height="110" viewBox="0 0 1681 110" fill="none" xmlns="http://www.w3.org/2000/svg">
<path d="M1681 0H0V110H1681V0Z" fill="#272824"/>
<path d="M1565.66 11.8301H270.67C246.32 11.8301 226.58 31.5698 226.58 55.92C226.58 80.2703 246.32 100.01 270.67 100.01H1565.66C1590.01 100.01 1609.75 80.2703 1609.75 55.92C1609.75 31.5698 1590.01 11.8301 1565.66 11.8301Z" fill="#FFFF00" stroke="white" stroke-width="2" stroke-miterlimit="10"/>
<path d="M6.13 61.4097H0V58.4697H15.84V61.4097H9.66V78.0898H6.17999L6.13 61.4097Z" fill="#4DCECC"/>
<path d="M19.3301 56.9102H22.8101V62.3702L22.6001 65.5202H22.6901C23.3302 64.7598 24.123 64.1425 25.0172 63.7084C25.9113 63.2742 26.8867 63.033 27.8801 63.0002C31.2701 63.0002 32.8801 65.1602 32.8801 69.0002V78.1202H29.4001V69.4502C29.4001 67.0802 28.6501 66.0002 26.6401 66.0002C25.2001 66.0002 24.2101 66.6902 22.8601 68.0702V78.1202H19.3801L19.3301 56.9102Z" fill="#4DCECC"/>
<path d="M36.6999 70.7099C36.6685 69.6966 36.8435 68.6874 37.2142 67.7437C37.5848 66.8001 38.1435 65.9416 38.8562 65.2205C39.5689 64.4994 40.4207 63.9307 41.3599 63.549C42.2992 63.1673 43.3062 62.9805 44.3199 62.9999C48.6999 62.9999 51.1299 65.9099 51.1299 69.9999C51.1233 70.5828 51.0731 71.1644 50.9799 71.7399H40.1499C40.5399 74.4699 42.4899 75.7399 45.2199 75.7399C46.6865 75.7172 48.1187 75.2917 49.3599 74.5099L50.5299 76.6699C48.8158 77.7889 46.8168 78.3928 44.7699 78.4099C40.2699 78.4499 36.6999 75.5999 36.6999 70.7099ZM40.2399 69.2699H48.0699C47.8299 66.8699 46.5099 65.6699 44.4099 65.6699C43.3919 65.6449 42.401 65.9997 41.6302 66.6652C40.8593 67.3307 40.3638 68.2592 40.2399 69.2699Z" fill="#4DCECC"/>
<path d="M58.9001 75.4199C58.9001 74.8265 59.076 74.2466 59.4057 73.7532C59.7353 73.2599 60.2038 72.8753 60.752 72.6483C61.3002 72.4212 61.9034 72.3618 62.4853 72.4776C63.0673 72.5933 63.6018 72.8791 64.0214 73.2986C64.4409 73.7182 64.7267 74.2527 64.8424 74.8346C64.9582 75.4166 64.8988 76.0198 64.6717 76.568C64.4446 77.1161 64.0601 77.5847 63.5668 77.9143C63.0734 78.244 62.4934 78.4199 61.9001 78.4199C61.5031 78.4309 61.1081 78.3609 60.7391 78.214C60.3701 78.0672 60.035 77.8466 59.7542 77.5658C59.4734 77.285 59.2528 76.9499 59.1059 76.5809C58.9591 76.2119 58.889 75.8169 58.9001 75.4199Z" fill="#F24370"/>
<path d="M76.4501 76.4702H76.3601L76.0601 78.0902H73.3301V56.9102H76.8101V62.3702L76.6601 64.9502H76.7501C77.9401 63.7339 79.5499 63.0185 81.2501 62.9502C85.0601 62.9502 87.2501 65.8902 87.2501 70.4202C87.2501 75.4902 84.1001 78.4202 80.7101 78.4202C79.0968 78.3233 77.5777 77.6279 76.4501 76.4702ZM83.7101 70.5302C83.7101 67.5902 82.7101 65.8502 80.2901 65.8502C79.6209 65.8967 78.968 66.0774 78.3702 66.3815C77.7723 66.6856 77.2418 67.1068 76.8101 67.6202V74.2502C77.6863 75.0848 78.8404 75.5657 80.0501 75.6002C82.1201 75.6002 83.7101 73.8602 83.7101 70.5302Z" fill="white"/>
<path d="M90.6999 70.7099C90.6685 69.6966 90.8435 68.6874 91.2142 67.7437C91.5848 66.8001 92.1435 65.9416 92.8562 65.2205C93.5689 64.4994 94.4207 63.9307 95.3599 63.549C96.2992 63.1673 97.3062 62.9805 98.3199 62.9999C102.7 62.9999 105.13 65.9099 105.13 69.9999C105.123 70.5828 105.073 71.1644 104.98 71.7399H94.1499C94.5399 74.4699 96.4899 75.7399 99.2199 75.7399C100.687 75.7172 102.119 75.2917 103.36 74.5099L104.53 76.6699C102.816 77.7889 100.817 78.3928 98.7699 78.4099C94.2699 78.4499 90.6999 75.5999 90.6999 70.7099ZM94.2399 69.2699H102.07C101.83 66.8699 100.51 65.6699 98.4099 65.6699C97.3919 65.6449 96.401 65.9997 95.6302 66.6652C94.8593 67.3307 94.3638 68.2592 94.2399 69.2699Z" fill="white"/>
<path d="M108.73 76.17L110.23 73.98C112.055 75.2096 114.209 75.8581 116.41 75.84C118.41 75.84 119.41 75.06 119.41 74.07C119.41 73.08 118.75 72.57 115.33 71.85C111.4 71.04 109.63 69.63 109.63 67.41C109.63 64.83 111.97 63 116.11 63C118.309 63.0652 120.443 63.7593 122.26 65L120.67 67.13C119.225 66.1837 117.537 65.6734 115.81 65.66C113.86 65.66 113.08 66.38 113.08 67.28C113.08 68.18 114.19 68.69 116.92 69.28C121.63 70.28 122.86 71.59 122.86 73.93C122.86 76.45 120.43 78.49 115.96 78.49C113.377 78.4282 110.867 77.6227 108.73 76.17Z" fill="white"/>
<path d="M130.57 72.1503V66.0903H126.64V63.5103L130.72 63.3602L131.17 58.7402H134V63.3602H140.72V66.0903H134V72.1503C134 74.5803 134.9 75.6902 137.42 75.6902C138.518 75.6906 139.606 75.4872 140.63 75.0903L141.29 77.6102C139.78 78.1598 138.187 78.444 136.58 78.4503C132.1 78.4503 130.57 75.9303 130.57 72.1503Z" fill="white"/>
<path d="M148.9 75.4199C148.9 74.8265 149.076 74.2466 149.406 73.7532C149.735 73.2599 150.204 72.8753 150.752 72.6483C151.3 72.4212 151.903 72.3618 152.485 72.4776C153.067 72.5933 153.602 72.8791 154.021 73.2986C154.441 73.7182 154.727 74.2527 154.842 74.8346C154.958 75.4166 154.899 76.0198 154.672 76.568C154.445 77.1161 154.06 77.5847 153.567 77.9143C153.073 78.244 152.493 78.4199 151.9 78.4199C151.503 78.4309 151.108 78.3609 150.739 78.214C150.37 78.0672 150.035 77.8466 149.754 77.5658C149.473 77.285 149.253 76.9499 149.106 76.5809C148.959 76.2119 148.889 75.8169 148.9 75.4199Z" fill="#F24370"/>
<path d="M189.45 68.0802C189.43 64.9333 190.127 61.823 191.487 58.9851C192.847 56.1472 194.835 53.656 197.3 51.7002L199.6 53.6102C195.03 57.7502 193.01 62.2102 193.01 68.0802C193.01 73.9502 195.01 78.4102 199.6 82.5502L197.3 84.4602C194.835 82.5044 192.847 80.0132 191.487 77.1752C190.127 74.3373 189.43 71.2271 189.45 68.0802Z" fill="white"/>
<path d="M256.44 31H268.83C282.73 31 291.01 38.77 291.01 54.33C291.01 69.89 282.73 78.09 269.26 78.09H256.44V31ZM268.32 71.32C277.32 71.32 282.44 65.92 282.44 54.32C282.44 42.72 277.33 37.76 268.32 37.76H264.8V71.31L268.32 71.32Z" fill="#333333"/>
<path d="M315.41 49.2899H300.07V42.7299H323.69V78.0899H315.41V49.2899ZM313 30.7099C313.088 29.2045 313.747 27.7896 314.844 26.7548C315.941 25.72 317.392 25.1436 318.9 25.1436C320.408 25.1436 321.859 25.72 322.956 26.7548C324.052 27.7896 324.712 29.2045 324.8 30.7099C324.8 34.0899 322.28 36.2499 318.9 36.2499C315.52 36.2499 313 34.0899 313 30.7099Z" fill="#333333"/>
<path d="M341.69 84.2799C341.69 81.4699 343.63 78.8798 347.31 76.8598V76.5799C346.232 76.0114 345.329 75.1618 344.695 74.1213C344.061 73.0808 343.721 71.8881 343.71 70.6698C343.71 68.3698 345.36 65.7699 347.95 64.0499V63.7599C346.515 62.7115 345.353 61.3323 344.565 59.7394C343.776 58.1465 343.383 56.3869 343.42 54.6098C343.42 46.4798 350.19 41.8699 357.96 41.8699C359.845 41.8431 361.721 42.1338 363.51 42.7298H378V49.0699H369.86C371.298 50.6772 372.117 52.7439 372.17 54.8999C372.17 62.7499 365.9 66.8999 357.98 66.8999C356.138 66.8572 354.315 66.5196 352.58 65.8999C351.944 66.191 351.403 66.6564 351.021 67.2423C350.639 67.8282 350.43 68.5104 350.42 69.2099C350.42 71.5199 352.73 72.5199 357.12 72.5199H364.32C373.46 72.5199 378.22 74.9698 378.22 81.1598C378.22 88.1598 370.3 93.6899 357.84 93.6899C348.1 93.7099 341.69 90.6199 341.69 84.2799ZM370.2 82.5499C370.2 79.8199 367.83 79.0998 363.08 79.0998H357.46C355.646 79.152 353.832 78.9808 352.06 78.5899C349.54 80.0299 348.6 81.5399 348.6 83.1999C348.6 86.3699 352.27 88.1999 358.83 88.1999C365.74 88.2399 370.2 85.5798 370.2 82.5499ZM364.66 54.6098C364.695 53.7089 364.547 52.8102 364.227 51.9675C363.906 51.1249 363.418 50.3556 362.793 49.7059C362.168 49.0561 361.418 48.5392 360.589 48.1861C359.759 47.8331 358.867 47.651 357.965 47.651C357.063 47.651 356.171 47.8331 355.341 48.1861C354.512 48.5392 353.762 49.0561 353.137 49.7059C352.512 50.3556 352.024 51.1249 351.703 51.9675C351.382 52.8102 351.235 53.7089 351.27 54.6098C351.27 59.0798 354.27 61.6698 357.96 61.6698C361.65 61.6698 364.66 59.0798 364.66 54.6098Z" fill="#333333"/>
<path d="M401.81 49.2899H386.47V42.7299H410.09V78.09H401.81V49.2899ZM399.43 30.71C399.492 29.1859 400.142 27.7451 401.243 26.6889C402.343 25.6327 403.809 25.043 405.335 25.043C406.86 25.043 408.326 25.6327 409.427 26.6889C410.527 27.7451 411.177 29.1859 411.24 30.71C411.24 34.09 408.72 36.2499 405.34 36.2499C401.96 36.2499 399.43 34.09 399.43 30.71Z" fill="#333333"/>
<path d="M437.3 63.8301V49.2901H427.87V43.0901L437.67 42.7301L438.75 31.6401H445.59V42.7301H461.71V49.2901H445.59V63.8301C445.59 69.6601 447.75 72.3301 453.79 72.3301C456.427 72.3304 459.041 71.8421 461.5 70.8901L463.08 76.9401C459.457 78.2543 455.634 78.931 451.78 78.9401C441 79.0001 437.3 72.9001 437.3 63.8301Z" fill="#333333"/>
<path d="M471.94 68.5801C471.94 60.6601 478.94 56.7001 496.35 55.4801C496.06 51.4801 493.68 48.5701 487.92 48.5701C483.92 48.5701 480 50.2901 476.33 52.3101L473.33 46.7701C477.58 44.2501 483.41 41.8701 489.46 41.8701C499.26 41.8701 504.66 47.2701 504.66 57.1301V78.1301H497.89L497.24 73.7401H497C493.26 76.6201 488.51 78.9901 483.75 78.9901C476.83 79.0001 471.94 74.7801 471.94 68.5801ZM496.35 68.1501V60.6601C483.67 61.5301 479.93 64.1201 479.93 67.9301C479.93 71.1001 482.74 72.4701 486.26 72.4701C489.78 72.4701 493.11 70.7401 496.35 68.1501Z" fill="#333333"/>
<path d="M526.3 65.2V33.8H515.13V27.25H534.58V65.63C534.58 70.38 537.38 72.18 540.91 72.18C542.997 72.1383 545.055 71.6757 546.96 70.82L548.91 76.94C545.747 78.2804 542.345 78.961 538.91 78.94C530.69 79 526.3 73.91 526.3 65.2Z" fill="#333333"/>
<path d="M601.1 31H610.32L615.93 49.36L617.93 56.36H618.22L620.09 49.36L625.73 31H634.94V78.09H627.6V59.09C627.6 54.09 628.39 44.4 628.82 39.79H628.61L625.44 50.79L620.25 65.69H615.5L610.39 50.79L607.29 39.79H607.08C607.58 44.4 608.3 54.12 608.3 59.09V78.09H601.1V31Z" fill="#333333"/>
<path d="M644.73 68.5801C644.73 60.6601 651.73 56.7001 669.14 55.4801C668.86 51.4801 666.48 48.5701 660.72 48.5701C656.72 48.5701 652.8 50.2901 649.13 52.3101L646.13 46.7701C650.38 44.2501 656.21 41.8701 662.26 41.8701C672.05 41.8701 677.45 47.2701 677.45 57.1301V78.1301H670.69L670 73.7001H669.78C666.04 76.5801 661.28 78.9501 656.53 78.9501C649.63 79.0001 644.73 74.7801 644.73 68.5801ZM669.14 68.1501V60.6601C656.47 61.5301 652.73 64.1201 652.73 67.9301C652.73 71.1001 655.53 72.4701 659.06 72.4701C662.59 72.4701 665.9 70.7401 669.14 68.1501Z" fill="#333333"/>
<path d="M692.18 42.7299H699L699.72 50.7299H700C703.6 45.0399 708.93 41.8699 715 41.8699C717.364 41.7771 719.714 42.2719 721.84 43.3099L720.11 50.3099C718.054 49.5721 715.884 49.2064 713.7 49.2299C708.88 49.2299 704.12 51.7499 700.52 58.5899V78.1099H692.17L692.18 42.7299Z" fill="#333333"/>
<path d="M732.5 27.25H740.85V59.08H741.14L757.05 42.73H766.27L752.52 56.85L767.78 78.09H758.71L747.55 62L740.85 68.91V78.13H732.5V27.25Z" fill="#333333"/>
<path d="M773.61 60.3701C773.542 57.94 773.967 55.5213 774.86 53.26C775.752 50.9986 777.093 48.9414 778.803 47.2126C780.512 45.4838 782.554 44.1191 784.805 43.2009C787.056 42.2827 789.469 41.83 791.9 41.8701C802.41 41.8701 808.25 48.8702 808.25 58.6502C808.232 60.0471 808.112 61.4408 807.89 62.8201H781.89C782.83 69.3801 787.51 72.5401 794.06 72.5401C797.58 72.4798 801.017 71.4599 804 69.5902L806.81 74.7802C802.703 77.4747 797.912 78.9389 793 79.0001C782.18 79.0001 773.61 72.1101 773.61 60.3701ZM782.11 56.9201H800.9C800.33 51.1601 797.16 48.2802 792.12 48.2802C787.08 48.2802 783.19 51.2301 782.11 56.9201Z" fill="#333333"/>
<path d="M826.1 63.8301V49.2901H816.67V43.0901L826.46 42.7301L827.54 31.6401H834.38V42.7301H850.51V49.2901H834.38V63.8301C834.38 69.6601 836.54 72.3301 842.59 72.3301C845.223 72.3294 847.834 71.8411 850.29 70.8901L851.88 76.9401C848.253 78.2533 844.427 78.9299 840.57 78.9401C829.77 79.0001 826.1 72.9001 826.1 63.8301Z" fill="#333333"/>
<path d="M877 49.2899H861.67V42.7299H885.28V78.09H877V49.2899ZM874.63 30.71C874.693 29.1859 875.342 27.7451 876.443 26.6889C877.543 25.6327 879.01 25.043 880.535 25.043C882.06 25.043 883.527 25.6327 884.627 26.6889C885.728 27.7451 886.377 29.1859 886.44 30.71C886.44 34.09 883.92 36.2499 880.53 36.2499C877.14 36.2499 874.63 34.09 874.63 30.71Z" fill="#333333"/>
<path d="M904.72 42.7301H911.56L912.21 48.0601H912.5C915.81 44.6801 919.84 41.8701 925.24 41.8701C933.38 41.8701 937.12 47.0501 937.12 56.2001V78.0901H928.77V57.2802C928.77 51.5902 926.97 49.0001 922.15 49.0001C918.69 49.0001 916.31 50.6501 913.07 54.0001V78.1201H904.72V42.7301Z" fill="#333333"/>
<path d="M946.48 84.2799C946.48 81.4699 948.42 78.8798 952.1 76.8598V76.5799C951.024 76.0097 950.121 75.1597 949.488 74.1196C948.854 73.0795 948.513 71.8877 948.5 70.6698C948.5 68.3698 950.15 65.7699 952.75 64.0499V63.7599C951.313 62.712 950.151 61.3332 949.36 59.7403C948.57 58.1475 948.175 56.3876 948.21 54.6098C948.21 46.4798 954.98 41.8699 962.75 41.8699C964.635 41.8431 966.511 42.1338 968.3 42.7298H982.77V49.0699H974.64C976.071 50.6809 976.885 52.746 976.94 54.8999C976.94 62.7499 970.67 66.8999 962.75 66.8999C960.908 66.8564 959.085 66.5188 957.35 65.8999C956.714 66.191 956.173 66.6564 955.791 67.2423C955.409 67.8282 955.2 68.5104 955.19 69.2099C955.19 71.5199 957.5 72.5199 961.89 72.5199H969.09C978.24 72.5199 982.99 74.9698 982.99 81.1598C982.99 88.1598 975.07 93.6899 962.61 93.6899C952.89 93.7099 946.48 90.6199 946.48 84.2799ZM975 82.5499C975 79.8199 972.62 79.0998 967.87 79.0998H962.25C960.436 79.152 958.622 78.9808 956.85 78.5899C954.33 80.0299 953.39 81.5399 953.39 83.1999C953.39 86.3699 957.07 88.1999 963.62 88.1999C970.53 88.2399 975 85.5798 975 82.5499ZM969.45 54.6098C969.485 53.7089 969.337 52.8102 969.017 51.9675C968.696 51.1249 968.208 50.3556 967.583 49.7059C966.958 49.0561 966.208 48.5392 965.379 48.1861C964.549 47.8331 963.657 47.651 962.755 47.651C961.853 47.651 960.961 47.8331 960.131 48.1861C959.302 48.5392 958.552 49.0561 957.927 49.7059C957.302 50.3556 956.814 51.1249 956.493 51.9675C956.173 52.8102 956.025 53.7089 956.06 54.6098C956.06 59.0798 959.06 61.6698 962.75 61.6698C966.44 61.6698 969.45 59.0798 969.45 54.6098Z" fill="#333333"/>
<path d="M1041.81 74.2H1041.59L1040.87 78.09H1034.32V27.25H1042.67V40.36L1042.31 46.55H1042.53C1045.4 43.6744 1049.27 42.0011 1053.33 41.87C1062.47 41.87 1067.8 48.93 1067.8 59.8C1067.8 71.97 1060.24 78.95 1052.11 78.95C1048.79 79 1044.9 77.22 1041.81 74.2ZM1059.23 59.94C1059.23 52.89 1056.79 48.71 1051.03 48.71C1048.36 48.71 1045.55 50.01 1042.67 52.96V68.87C1044.77 70.8749 1047.55 72.0292 1050.45 72.11C1055.42 72.11 1059.23 67.93 1059.23 59.94Z" fill="#333333"/>
<path d="M1076.44 91.91L1078.02 85.43C1078.99 85.7498 1080 85.9217 1081.02 85.94C1085.49 85.94 1088.08 83.42 1089.52 79.89L1090.39 77.66L1074.54 42.73H1082.83L1090.1 60.09C1091.39 63.25 1092.69 66.93 1093.99 70.46H1094.27C1095.35 67.07 1096.65 63.4 1097.8 60.09L1104.21 42.73H1112L1097.24 79.67C1094.24 87.67 1089.97 92.67 1081.47 92.67C1079.76 92.669 1078.07 92.4128 1076.44 91.91Z" fill="#333333"/>
<path d="M1165.43 31H1195.6V38H1173.78V50H1192.29V57H1173.78V71H1196.32V78.06H1165.43V31Z" fill="#333333"/>
<path d="M1217.63 53.82L1204.63 31H1214L1219.54 41.44C1220.69 43.6 1221.77 45.83 1223.21 48.64H1223.5C1224.73 45.83 1225.73 43.64 1226.81 41.44L1232.1 31H1241L1228 54.18L1241.82 78.09H1232.61L1226.49 67C1225.19 64.55 1223.97 62.17 1222.49 59.29H1222.2C1220.9 62.17 1219.75 64.55 1218.53 67L1212.62 78.09H1203.76L1217.63 53.82Z" fill="#333333"/>
<path d="M1250 51.2998H1282V57.3498H1250V51.2998Z" fill="#333333"/>
<path d="M1291.07 54.69C1291.07 39.2 1300.21 30.13 1312.45 30.13C1314.96 30.1209 1317.45 30.6427 1319.74 31.6612C1322.04 32.6798 1324.09 34.1719 1325.77 36.04L1321.17 41.22C1320.09 39.9807 1318.74 38.9958 1317.24 38.3354C1315.73 37.6751 1314.09 37.3557 1312.45 37.4C1304.96 37.4 1299.71 43.89 1299.71 54.47C1299.71 65.05 1304.25 71.68 1312.6 71.68C1315.12 71.68 1317.6 70.96 1318.93 69.59V59.44H1310.8V52.6H1326.5V73.34C1322.58 76.9748 1317.43 78.9809 1312.09 78.95C1300.14 79 1291.07 70.31 1291.07 54.69Z" fill="#333333"/>
<path d="M1333.91 54.3299C1333.91 38.8499 1341.47 30.1299 1352.41 30.1299C1363.35 30.1299 1370.92 38.8499 1370.92 54.3299C1370.92 70.0999 1363.36 78.9499 1352.41 78.9499C1341.46 78.9499 1333.91 70.0999 1333.91 54.3299ZM1362.35 54.3299C1362.35 43.5199 1358.46 37.3999 1352.41 37.3999C1346.36 37.3999 1342.48 43.5199 1342.48 54.3299C1342.48 65.4199 1346.36 71.6799 1352.41 71.6799C1358.46 71.6799 1362.35 65.4199 1362.35 54.3299Z" fill="#333333"/>
<path d="M1377.11 54.3299C1377.11 38.8499 1384.67 30.1299 1395.61 30.1299C1406.55 30.1299 1414.12 38.8499 1414.12 54.3299C1414.12 70.0999 1406.56 78.9499 1395.61 78.9499C1384.66 78.9499 1377.11 70.0999 1377.11 54.3299ZM1405.55 54.3299C1405.55 43.5199 1401.66 37.3999 1395.61 37.3999C1389.56 37.3999 1385.67 43.5199 1385.67 54.3299C1385.67 65.4199 1389.56 71.6799 1395.61 71.6799C1401.66 71.6799 1405.55 65.4199 1405.55 54.3299Z" fill="#333333"/>
<path d="M1420.67 54.69C1420.67 39.2 1429.81 30.13 1442.05 30.13C1444.56 30.1221 1447.05 30.6445 1449.34 31.6629C1451.64 32.6814 1453.69 34.1729 1455.37 36.0399L1450.76 41.2199C1449.68 39.9804 1448.34 38.9951 1446.83 38.3347C1445.33 37.6743 1443.69 37.3551 1442.05 37.4C1434.56 37.4 1429.31 43.8899 1429.31 54.4699C1429.31 65.0499 1433.84 71.68 1442.2 71.68C1444.72 71.68 1447.2 70.96 1448.53 69.59V59.44H1440.39V52.5999H1456.09V73.34C1452.18 76.9776 1447.03 78.9844 1441.69 78.95C1429.74 79 1420.67 70.31 1420.67 54.69Z" fill="#333333"/>
<path d="M1469.05 31H1477.33V71H1499.44V78.06H1469.05V31Z" fill="#333333"/>
<path d="M1511 31H1541.17V38H1519.36V50H1537.86V57H1519.36V71H1541.9V78.06H1511V31Z" fill="#333333"/>
<path d="M1552.86 31H1568.55C1578.35 31 1585.91 34.45 1585.91 45C1585.91 52.12 1582.16 56.52 1576.54 58.46L1587.78 78.12H1578.35L1568.26 59.68H1561.26V78.12H1552.91L1552.86 31ZM1567.69 53C1574.17 53 1577.69 50.26 1577.69 44.94C1577.69 39.62 1574.16 37.66 1567.69 37.66H1561.21V53H1567.69Z" fill="#333333"/>
<path d="M1637.67 82.5502C1642.24 78.4102 1644.26 73.9502 1644.26 68.0802C1644.26 62.2102 1642.26 57.7502 1637.67 53.6102L1639.97 51.7002C1642.42 53.6679 1644.4 56.1614 1645.76 58.9964C1647.12 61.8314 1647.83 64.9358 1647.83 68.0802C1647.83 71.2247 1647.12 74.329 1645.76 77.164C1644.4 79.9991 1642.42 82.4925 1639.97 84.4602L1637.67 82.5502Z" fill="white"/>
<path d="M1661.61 83.3401C1664.61 82.1201 1666.14 80.3401 1666.22 77.8001C1666.05 77.82 1665.88 77.82 1665.71 77.8001C1665.27 77.8338 1664.83 77.7753 1664.42 77.6282C1664 77.4811 1663.63 77.2488 1663.31 76.9462C1662.99 76.6437 1662.74 76.2777 1662.57 75.8718C1662.4 75.466 1662.32 75.0293 1662.33 74.5901C1662.33 74.1489 1662.42 73.7127 1662.6 73.3086C1662.78 72.9045 1663.04 72.5412 1663.36 72.2411C1663.68 71.941 1664.07 71.7107 1664.48 71.5643C1664.9 71.4179 1665.34 71.3586 1665.78 71.3901C1668.34 71.3901 1669.67 73.4401 1669.67 76.7901C1669.67 81.1801 1667.15 84.3101 1662.67 85.7901L1661.61 83.3401ZM1662.04 62.6501C1662.05 61.9463 1662.27 61.2617 1662.67 60.6823C1663.07 60.103 1663.63 59.6548 1664.29 59.394C1664.94 59.1333 1665.66 59.0717 1666.35 59.217C1667.03 59.3622 1667.67 59.7079 1668.16 60.2104C1668.65 60.713 1668.98 61.3501 1669.12 62.0416C1669.25 62.733 1669.17 63.4481 1668.9 64.0967C1668.63 64.7454 1668.17 65.2988 1667.58 65.6873C1666.99 66.0757 1666.3 66.282 1665.6 66.2802C1665.12 66.2942 1664.64 66.2096 1664.2 66.0318C1663.75 65.8539 1663.35 65.5866 1663.01 65.2462C1662.67 64.9059 1662.41 64.4999 1662.24 64.0533C1662.06 63.6067 1661.98 63.1291 1662 62.6501H1662.04Z" fill="white"/>
</svg>
