<svg width="1744" height="136" viewBox="0 0 1744 136" fill="none" xmlns="http://www.w3.org/2000/svg">
<rect width="1744" height="136" fill="white"/>
<path d="M0 0H1744V136H0V0Z" fill="#272824"/>
<path d="M1604.66 20.8301H309.67C285.32 20.8301 265.58 40.5698 265.58 64.92C265.58 89.2703 285.32 109.01 309.67 109.01H1604.66C1629.01 109.01 1648.75 89.2703 1648.75 64.92C1648.75 40.5698 1629.01 20.8301 1604.66 20.8301Z" fill="#FFFF00" stroke="white" stroke-width="2" stroke-miterlimit="10"/>
<path d="M44.7098 64.5899H38.5298V61.6499H54.3698V64.5899H48.1898V81.2699H44.7098V64.5899Z" fill="#4DCECC"/>
<path d="M57.9102 60.0898H61.3902V65.5498L61.1801 68.6998H61.2702C61.9103 67.9395 62.7031 67.3222 63.5972 66.8881C64.4913 66.4539 65.4668 66.2126 66.4602 66.1798C69.8502 66.1798 71.4102 68.3398 71.4102 72.1798V81.2998H67.9301V72.5998C67.9301 70.2298 67.1802 69.1498 65.1702 69.1498C63.7302 69.1498 62.7402 69.8398 61.3902 71.2198V81.2198H57.9102V60.0898Z" fill="#4DCECC"/>
<path d="M75.2799 73.8901C75.2486 72.8767 75.4236 71.8676 75.7942 70.9239C76.1649 69.9803 76.7236 69.1218 77.4362 68.4007C78.1489 67.6796 79.0008 67.1109 79.94 66.7292C80.8792 66.3474 81.8863 66.1606 82.8999 66.1801C87.2799 66.1801 89.71 69.0901 89.71 73.1801C89.7033 73.763 89.6532 74.3446 89.5599 74.9201H78.7299C79.1199 77.6501 81.07 78.9701 83.8 78.9701C85.2666 78.9474 86.6988 78.5219 87.9399 77.7401L89.1099 79.9001C87.3959 81.0191 85.3969 81.623 83.35 81.6401C78.85 81.6301 75.2799 78.7801 75.2799 73.8901ZM78.82 72.4501H86.6499C86.4099 70.0501 85.09 68.8501 82.99 68.8501C81.9719 68.8251 80.981 69.1799 80.2102 69.8454C79.4394 70.5108 78.9438 71.4393 78.82 72.4501Z" fill="#4DCECC"/>
<path d="M97.4801 78.6001C97.4801 78.0067 97.6561 77.4267 97.9857 76.9334C98.3154 76.44 98.7839 76.0555 99.3321 75.8285C99.8803 75.6014 100.483 75.542 101.065 75.6577C101.647 75.7735 102.182 76.0592 102.601 76.4788C103.021 76.8983 103.307 77.4329 103.422 78.0148C103.538 78.5967 103.479 79.2 103.252 79.7481C103.025 80.2963 102.64 80.7649 102.147 81.0945C101.654 81.4242 101.073 81.6001 100.48 81.6001C100.083 81.6111 99.6881 81.5411 99.3192 81.3942C98.9502 81.2473 98.6151 81.0267 98.3343 80.7459C98.0535 80.4651 97.8329 80.13 97.686 79.7611C97.5392 79.3921 97.4691 78.997 97.4801 78.6001Z" fill="#F24370"/>
<path d="M115 79.6498H114.91L114.61 81.2698H111.88V60.0898H115.36V65.5498L115.21 68.1298H115.3C116.49 66.9136 118.1 66.1981 119.8 66.1298C123.61 66.1298 125.8 69.0698 125.8 73.5998C125.8 78.6698 122.65 81.5998 119.26 81.5998C117.647 81.5029 116.128 80.8076 115 79.6498ZM122.26 73.7098C122.26 70.7698 121.26 69.0298 118.84 69.0298C118.171 69.0764 117.518 69.257 116.92 69.5611C116.322 69.8652 115.792 70.2864 115.36 70.7998V77.4298C116.236 78.2645 117.39 78.7454 118.6 78.7798C120.7 78.7798 122.29 76.9998 122.29 73.7098H122.26Z" fill="white"/>
<path d="M129.28 73.8901C129.249 72.8767 129.424 71.8676 129.794 70.9239C130.165 69.9803 130.724 69.1218 131.436 68.4007C132.149 67.6796 133.001 67.1109 133.94 66.7292C134.879 66.3474 135.886 66.1606 136.9 66.1801C141.28 66.1801 143.71 69.0901 143.71 73.1801C143.703 73.763 143.653 74.3446 143.56 74.9201H132.73C133.12 77.6501 135.07 78.9701 137.8 78.9701C139.267 78.9474 140.699 78.5219 141.94 77.7401L143.11 79.9001C141.396 81.0191 139.397 81.623 137.35 81.6401C132.85 81.6301 129.28 78.7801 129.28 73.8901ZM132.82 72.4501H140.65C140.41 70.0501 139.09 68.8501 136.99 68.8501C135.972 68.8251 134.981 69.1799 134.21 69.8454C133.439 70.5108 132.944 71.4393 132.82 72.4501Z" fill="white"/>
<path d="M147.31 79.3502L148.81 77.1602C150.64 78.3847 152.798 79.0262 155 79.0002C157 79.0002 158 78.2202 158 77.2302C158 76.2402 157.34 75.7302 153.92 75.0102C149.99 74.2002 148.22 72.7902 148.22 70.5702C148.22 67.9902 150.56 66.1602 154.7 66.1602C156.899 66.2254 159.033 66.9194 160.85 68.1602L159.26 70.2902C157.815 69.3439 156.128 68.8336 154.4 68.8202C152.45 68.8202 151.67 69.5402 151.67 70.4402C151.67 71.4902 152.78 71.8502 155.51 72.4402C160.22 73.4902 161.45 74.7502 161.45 77.0902C161.45 79.6102 159.02 81.6502 154.55 81.6502C151.966 81.5963 149.452 80.7976 147.31 79.3502Z" fill="white"/>
<path d="M169.15 75.33V69.27H165.22V66.6899L169.3 66.5399L169.75 61.9199H172.6V66.5399H179.32V69.27H172.6V75.33C172.6 77.76 173.5 78.8699 176.02 78.8699C177.118 78.8703 178.207 78.6669 179.23 78.27L179.89 80.7899C178.38 81.3395 176.787 81.6237 175.18 81.6299C170.68 81.6299 169.15 79.11 169.15 75.33Z" fill="white"/>
<path d="M187.48 78.6001C187.48 78.0067 187.656 77.4267 187.986 76.9334C188.315 76.44 188.784 76.0555 189.332 75.8285C189.88 75.6014 190.483 75.542 191.065 75.6577C191.647 75.7735 192.182 76.0592 192.601 76.4788C193.021 76.8983 193.307 77.4329 193.422 78.0148C193.538 78.5967 193.479 79.2 193.252 79.7481C193.025 80.2963 192.64 80.7649 192.147 81.0945C191.653 81.4242 191.073 81.6001 190.48 81.6001C190.083 81.6111 189.688 81.5411 189.319 81.3942C188.95 81.2473 188.615 81.0267 188.334 80.7459C188.053 80.4651 187.833 80.13 187.686 79.7611C187.539 79.3921 187.469 78.997 187.48 78.6001Z" fill="#F24370"/>
<path d="M228 71.2701C227.979 68.123 228.674 65.0122 230.034 62.1741C231.395 59.3359 233.383 56.8449 235.85 54.8901L238.15 56.8001C233.58 60.9401 231.56 65.4001 231.56 71.2701C231.56 77.1401 233.56 81.6001 238.15 85.7401L235.85 87.6401C233.384 85.6874 231.395 83.1982 230.035 80.3616C228.674 77.5251 227.979 74.4159 228 71.2701Z" fill="white"/>
<path d="M292.42 76.9097L296 72.7997C298.591 75.2047 301.975 76.5748 305.51 76.6498C309.51 76.6498 311.6 74.9297 311.6 72.5397C311.6 69.5397 309.26 68.6897 305.88 67.2897L301.25 65.2897C297.66 63.8797 293.97 61.2297 293.97 56.2897C293.97 50.8797 298.86 46.7197 305.77 46.7197C309.807 46.7228 313.693 48.2517 316.65 50.9998L313.53 54.8497C311.276 52.9147 308.39 51.8755 305.42 51.9297C302.2 51.9297 300.01 53.3897 300.01 55.9297C300.01 58.4697 302.77 59.5098 305.84 60.7098L310.31 62.6298C314.63 64.3498 317.69 66.8998 317.69 71.8398C317.69 77.3498 313.01 81.9297 305.11 81.9297C300.396 81.9297 295.858 80.1348 292.42 76.9097Z" fill="#333333"/>
<path d="M325.28 44.5601H331.28V67.5601H331.48L343 55.7401H349.65L339.72 65.9301L350.72 81.2701H344.16L336.1 69.6301L331.27 74.6301V81.2801H325.27L325.28 44.5601Z" fill="#333333"/>
<path d="M355.5 74.4101C355.5 68.6901 360.5 65.8301 373.12 64.9401C372.92 62.0901 371.2 59.9401 367.04 59.9401C364.18 59.9401 361.32 61.1901 358.67 62.6501L356.48 58.6501C359.989 56.478 364.005 55.261 368.13 55.1201C375.2 55.1201 379.13 59.0201 379.13 66.1201V81.2501H374.25L373.78 78.0801H373.62C370.92 80.1601 367.49 81.8801 364.05 81.8801C359 81.9001 355.5 78.8801 355.5 74.4101ZM373.12 74.1001V68.6901C363.97 69.3101 361.27 71.1801 361.27 73.9401C361.27 76.2301 363.27 77.2201 365.84 77.2201C368.41 77.2201 370.78 76.0001 373.12 74.1001Z" fill="#333333"/>
<path d="M398.45 60.47H387.37V55.74H404.43V81.27H398.43L398.45 60.47ZM396.73 47.06C396.783 45.9646 397.256 44.9315 398.05 44.175C398.844 43.4185 399.898 42.9966 400.995 42.9966C402.092 42.9966 403.146 43.4185 403.941 44.175C404.735 44.9315 405.207 45.9646 405.26 47.06C405.207 48.1554 404.735 49.1884 403.941 49.9449C403.146 50.7014 402.092 51.1234 400.995 51.1234C399.898 51.1234 398.844 50.7014 398.05 49.9449C397.256 49.1884 396.783 48.1554 396.73 47.06Z" fill="#333333"/>
<path d="M424.08 70.9998V60.4697H417.27V55.9998L424.34 55.7397L425.12 47.7397H430.06V55.7397H441.71V60.4697H430.06V70.9998C430.06 75.2098 431.62 77.1298 435.99 77.1298C437.893 77.1454 439.782 76.8063 441.56 76.1298L442.7 80.4998C440.084 81.4529 437.324 81.9469 434.54 81.9598C426.74 81.8998 424.08 77.5298 424.08 70.9998Z" fill="#333333"/>
<path d="M447.79 55.7401H452.42L452.89 58.9701H453.05C454.14 56.7801 455.75 55.1201 458.71 55.1201C461.05 55.1201 462.71 56.5701 463.34 59.3801C464.54 56.8901 466.2 55.1201 469.17 55.1201C472.76 55.1201 474.84 58.1201 474.84 63.1801V81.2701H469.06V63.5901C469.06 61.3601 468.44 60.2101 467.06 60.2101C465.68 60.2101 464.87 61.3101 463.83 63.4401V81.2701H458.83V63.5901C458.83 61.3601 458.26 60.2101 456.83 60.2101C455.4 60.2101 454.59 61.3101 453.66 63.4401V81.2701H447.83L447.79 55.7401Z" fill="#333333"/>
<path d="M479.77 68.4798C479.721 66.723 480.028 64.9746 480.674 63.3401C481.32 61.7057 482.291 60.2191 483.527 58.9703C484.764 57.7216 486.241 56.7365 487.869 56.0747C489.497 55.4129 491.243 55.088 493 55.1198C500.6 55.1198 504.81 60.1198 504.81 67.2298C504.795 68.2347 504.708 69.2373 504.55 70.2298H485.75C486.43 74.9598 489.81 77.2298 494.54 77.2298C497.082 77.185 499.564 76.4486 501.72 75.0998L503.72 78.8398C500.742 80.7766 497.271 81.8178 493.72 81.8398C486 81.8998 479.77 76.9998 479.77 68.4798ZM485.91 65.9798H499.48C499.07 61.8198 496.78 59.7398 493.14 59.7398C489.5 59.7398 486.69 61.8798 485.91 65.9998V65.9798Z" fill="#333333"/>
<path d="M512.07 55.7401H517L517.46 59.5901H517.67C520.06 57.1401 522.98 55.1201 526.88 55.1201C532.75 55.1201 535.46 58.8601 535.46 65.4701V81.2701H529.46V66.2701C529.46 62.1601 528.16 60.2701 524.68 60.2701C522.18 60.2701 520.47 61.4601 518.13 63.8501V81.2701H512.13L512.07 55.7401Z" fill="#333333"/>
<path d="M554.45 60.47H543.37V55.74H560.43V81.27H554.43L554.45 60.47ZM552.73 47.06C552.783 45.9646 553.256 44.9315 554.05 44.175C554.844 43.4185 555.898 42.9966 556.995 42.9966C558.092 42.9966 559.147 43.4185 559.941 44.175C560.735 44.9315 561.207 45.9646 561.26 47.06C561.207 48.1554 560.735 49.1884 559.941 49.9449C559.147 50.7014 558.092 51.1234 556.995 51.1234C555.898 51.1234 554.844 50.7014 554.05 49.9449C553.256 49.1884 552.783 48.1554 552.73 47.06Z" fill="#333333"/>
<path d="M574.46 55.7401H579.41L579.87 59.5901H580.08C582.47 57.1401 585.39 55.1201 589.29 55.1201C595.16 55.1201 597.87 58.8601 597.87 65.4701V81.2701H591.87V66.2701C591.87 62.1601 590.57 60.2701 587.09 60.2701C584.59 60.2701 582.88 61.4601 580.54 63.8501V81.2701H574.54L574.46 55.7401Z" fill="#333333"/>
<path d="M604.57 68.48C604.521 66.7249 604.828 64.9782 605.473 63.3451C606.118 61.712 607.086 60.2263 608.321 58.9778C609.555 57.7294 611.03 56.7439 612.656 56.0809C614.281 55.4178 616.025 55.091 617.78 55.12C625.37 55.12 629.59 60.12 629.59 67.23C629.576 68.2349 629.489 69.2375 629.33 70.23H610.55C611.23 74.96 614.61 77.23 619.34 77.23C621.882 77.1852 624.364 76.4488 626.52 75.1L628.52 78.84C625.543 80.7768 622.072 81.818 618.52 81.84C610.76 81.9 604.57 77 604.57 68.48ZM610.71 65.98H624.28C623.87 61.82 621.58 59.74 617.94 59.74C614.3 59.74 611.49 61.88 610.71 66V65.98ZM613.46 47.06C613.513 45.9646 613.986 44.9315 614.78 44.175C615.574 43.4185 616.628 42.9966 617.725 42.9966C618.822 42.9966 619.876 43.4185 620.67 44.175C621.464 44.9315 621.937 45.9646 621.99 47.06C621.937 48.1554 621.464 49.1884 620.67 49.9449C619.876 50.7014 618.822 51.1234 617.725 51.1234C616.628 51.1234 615.574 50.7014 614.78 49.9449C613.986 49.1884 613.513 48.1554 613.46 47.06Z" fill="#333333"/>
<path d="M670.56 55.7399H675.5L676.02 61.5099H676.18C678.78 57.3999 682.62 55.1199 687.04 55.1199C688.744 55.0394 690.441 55.383 691.98 56.1199L690.74 61.1199C689.255 60.5884 687.687 60.3243 686.11 60.3399C682.62 60.3399 679.19 62.1599 676.59 67.0999V81.1899H670.59L670.56 55.7399Z" fill="#333333"/>
<path d="M710.44 60.47H699.37V55.74H716.37V81.27H710.37L710.44 60.47ZM708.73 47.06C708.783 45.9646 709.256 44.9315 710.05 44.175C710.844 43.4185 711.898 42.9966 712.995 42.9966C714.092 42.9966 715.147 43.4185 715.941 44.175C716.735 44.9315 717.207 45.9646 717.26 47.06C717.207 48.1554 716.735 49.1884 715.941 49.9449C715.147 50.7014 714.092 51.1234 712.995 51.1234C711.898 51.1234 710.844 50.7014 710.05 49.9449C709.256 49.1884 708.783 48.1554 708.73 47.06Z" fill="#333333"/>
<path d="M730.46 55.7401H735.4L735.87 59.5901H736.08C738.47 57.1401 741.38 55.1201 745.28 55.1201C751.16 55.1201 753.86 58.8601 753.86 65.4701V81.2701H747.86V66.2701C747.86 62.1601 746.56 60.2701 743.08 60.2701C740.58 60.2701 738.86 61.4601 736.52 63.8501V81.2701H730.52L730.46 55.7401Z" fill="#333333"/>
<path d="M762.08 44.5601H768.08V67.5601H768.29L779.78 55.7501H786.44L776.5 65.9401L787.5 81.2801H781L773 69.6301L768.16 74.6301V81.2801H762.16L762.08 44.5601Z" fill="#333333"/>
<path d="M791.35 68.5302C791.35 60.0102 797.49 55.1201 804.2 55.1201C810.91 55.1201 817 60.0002 817 68.5302C817 77.0602 810.87 81.9001 804.16 81.9001C797.45 81.9001 791.35 77.0002 791.35 68.5302ZM810.85 68.5302C810.85 63.3902 808.36 60.0101 804.2 60.0101C800.04 60.0101 797.54 63.3902 797.54 68.5302C797.54 73.6702 800 77.0001 804.2 77.0001C808.4 77.0001 810.85 73.6302 810.85 68.5302Z" fill="#333333"/>
<path d="M822.55 68.5298C822.55 60.2098 828.01 55.1198 833.84 55.1198C835.15 55.1111 836.448 55.3731 837.653 55.8893C838.857 56.4056 839.942 57.1649 840.84 58.1198H841L840.69 53.8098V44.5498H846.69V81.2598H841.75L841.29 78.2598H841.13C839.115 80.3946 836.36 81.6788 833.43 81.8498C826.92 81.8998 822.55 76.9998 822.55 68.5298ZM840.7 73.8898V62.3998C839.993 61.6636 839.146 61.077 838.208 60.675C837.27 60.2731 836.26 60.0638 835.24 60.0598C831.71 60.0598 828.74 63.1298 828.74 68.4798C828.74 73.9898 831.03 76.9598 834.93 76.9598C837.06 76.9998 838.93 75.9998 840.7 73.8898Z" fill="#333333"/>
<path d="M854.69 74.4101C854.69 68.6901 859.69 65.8301 872.32 64.9401C872.11 62.0901 870.39 59.9401 866.23 59.9401C863.37 59.9401 860.51 61.1901 857.86 62.6501L855.68 58.6501C859.185 56.4779 863.198 55.2609 867.32 55.1201C874.4 55.1201 878.32 59.0201 878.32 66.1201V81.2501H873.43L872.96 78.0801H872.81C870.1 80.1601 866.67 81.8801 863.24 81.8801C858.22 81.9001 854.69 78.8801 854.69 74.4101ZM872.32 74.1001V68.6901C863.16 69.3101 860.46 71.1801 860.46 73.9401C860.46 76.2301 862.46 77.2201 865.04 77.2201C867.62 77.2201 870 76.0001 872.32 74.1001Z" fill="#333333"/>
<path d="M889 55.7397H893.94L894.46 61.5097H894.61C897.21 57.3997 901.06 55.1197 905.48 55.1197C907.184 55.04 908.881 55.3836 910.42 56.1197L909.17 61.1197C907.685 60.5865 906.117 60.3224 904.54 60.3397C901.06 60.3397 897.63 62.1597 895.03 67.0997V81.1897H889.03L889 55.7397Z" fill="#333333"/>
<path d="M917.09 74.4101C917.09 68.6901 922.09 65.8301 934.72 64.9401C934.51 62.0901 932.79 59.9401 928.63 59.9401C925.77 59.9401 922.91 61.1901 920.26 62.6501L918.08 58.6501C921.585 56.4779 925.598 55.2609 929.72 55.1201C936.8 55.1201 940.72 59.0201 940.72 66.1201V81.2501H935.83L935.36 78.0801H935.2C932.5 80.1601 929.07 81.8801 925.64 81.8801C920.62 81.9001 917.09 78.8801 917.09 74.4101ZM934.72 74.1001V68.6901C925.56 69.3101 922.86 71.1801 922.86 73.9401C922.86 76.2301 924.86 77.2201 927.44 77.2201C930.02 77.2201 932.38 76.0001 934.72 74.1001Z" fill="#333333"/>
<path d="M980.06 55.7401H985L985.47 58.6501H985.62C987.828 56.5258 990.73 55.2719 993.79 55.1201C1000.44 55.1201 1004.24 60.2101 1004.24 68.1201C1004.24 76.8501 998.78 81.9001 992.9 81.9001C990.272 81.8172 987.772 80.7459 985.9 78.9001H985.74L986.05 83.3701V91.3701H980.05L980.06 55.7401ZM998.06 68.1701C998.06 63.0701 996.29 60.0601 992.13 60.0601C990.21 60.0601 988.18 60.9901 986.13 63.1301V74.6201C987.638 76.0543 989.62 76.8867 991.7 76.9601C995.3 77.0001 998.05 73.9401 998.05 68.1701H998.06Z" fill="#333333"/>
<path d="M1010.69 74.4101C1010.69 68.6901 1015.69 65.8301 1028.31 64.9401C1028.11 62.0901 1026.39 59.9401 1022.23 59.9401C1019.37 59.9401 1016.51 61.1901 1013.86 62.6501L1011.67 58.6501C1015.18 56.4792 1019.2 55.2624 1023.32 55.1201C1030.39 55.1201 1034.32 59.0201 1034.32 66.1201V81.2501H1029.44L1028.97 78.0801H1028.81C1026.11 80.1601 1022.68 81.8801 1019.24 81.8801C1014.22 81.9001 1010.69 78.8801 1010.69 74.4101ZM1028.31 74.1001V68.6901C1019.16 69.3101 1016.46 71.1801 1016.46 73.9401C1016.46 76.2301 1018.46 77.2201 1021.04 77.2201C1023.62 77.2201 1026 76.0001 1028.31 74.1001Z" fill="#333333"/>
<path d="M1041.42 85.7501C1041.42 83.7501 1042.82 81.8501 1045.42 80.3901V80.1801C1044.64 79.7706 1043.99 79.1585 1043.53 78.4085C1043.07 77.6585 1042.83 76.7987 1042.82 75.9201C1042.92 74.9366 1043.25 73.9904 1043.78 73.1582C1044.32 72.326 1045.04 71.6311 1045.89 71.1301V70.9301C1044.85 70.1715 1044.02 69.1749 1043.45 68.0244C1042.88 66.8739 1042.59 65.6034 1042.62 64.3201C1042.62 58.4401 1047.5 55.1201 1053.12 55.1201C1054.48 55.0954 1055.83 55.3052 1057.12 55.7401H1067.58V60.3201H1061.7C1062.73 61.4831 1063.32 62.9747 1063.36 64.5301C1063.36 70.2001 1058.84 73.2101 1053.12 73.2101C1051.79 73.1759 1050.47 72.9329 1049.22 72.4901C1048.76 72.7001 1048.37 73.0361 1048.09 73.4592C1047.82 73.8822 1047.67 74.375 1047.66 74.8801C1047.66 76.5401 1049.32 77.2701 1052.5 77.2701H1057.7C1064.3 77.2701 1067.7 79.0401 1067.7 83.5101C1067.7 88.5101 1061.98 92.5101 1052.99 92.5101C1046.05 92.5601 1041.42 90.3201 1041.42 85.7501ZM1062 84.5001C1062 82.5001 1060.28 82.0001 1056.85 82.0001H1052.85C1051.54 82.0403 1050.23 81.9194 1048.95 81.6401C1047.13 82.6401 1046.45 83.7701 1046.45 84.9701C1046.45 87.2501 1049.1 88.6101 1053.83 88.6101C1058.79 88.6101 1062 86.6801 1062 84.5001ZM1058 64.3201C1057.95 63.3726 1057.63 62.4603 1057.06 61.6961C1056.5 60.9319 1055.73 60.3493 1054.84 60.0206C1053.95 59.6918 1052.98 59.6313 1052.06 59.8466C1051.13 60.0618 1050.29 60.5433 1049.64 61.2315C1048.99 61.9197 1048.55 62.7843 1048.38 63.7183C1048.22 64.6523 1048.33 65.6146 1048.7 66.4862C1049.08 67.3578 1049.7 68.1003 1050.49 68.6218C1051.28 69.1432 1052.21 69.4208 1053.16 69.4201C1053.82 69.4345 1054.48 69.3103 1055.09 69.0556C1055.7 68.8009 1056.25 68.4212 1056.71 67.941C1057.16 67.4608 1057.51 66.8906 1057.74 66.2671C1057.96 65.6435 1058.05 64.9804 1058 64.3201Z" fill="#333333"/>
<path d="M1073.08 74.4101C1073.08 68.6901 1078.13 65.8301 1090.71 64.9401C1090.51 62.0901 1088.79 59.9401 1084.63 59.9401C1081.77 59.9401 1078.91 61.1901 1076.26 62.6501L1074.07 58.6501C1077.58 56.478 1081.6 55.261 1085.72 55.1201C1092.79 55.1201 1096.72 59.0201 1096.72 66.1201V81.2501H1091.84L1091.37 78.0801H1091.21C1088.51 80.1601 1085.07 81.8801 1081.64 81.8801C1076.62 81.9001 1073.08 78.8801 1073.08 74.4101ZM1090.71 74.1001V68.6901C1081.56 69.3101 1078.86 71.1801 1078.86 73.9401C1078.86 76.2301 1080.86 77.2201 1083.43 77.2201C1086 77.2201 1088.37 76.0001 1090.71 74.1001Z" fill="#333333"/>
<path d="M1112.35 72.0001V49.29H1104.29V44.5601H1118.29V72.2801C1118.29 75.7101 1120.29 77.0101 1122.86 77.0101C1124.37 76.9771 1125.86 76.6369 1127.23 76.0101L1128.63 80.4301C1126.35 81.4092 1123.89 81.9063 1121.41 81.8901C1115.52 81.9001 1112.35 78.2601 1112.35 72.0001Z" fill="#333333"/>
<path d="M1172.66 78.47H1172.51L1171.99 81.2701H1167.26V44.5601H1173.26V54.0001L1173 58.48H1173.15C1175.23 56.407 1178.02 55.1991 1180.95 55.1C1187.56 55.1 1191.41 60.19 1191.41 68.04C1191.41 76.83 1185.95 81.8801 1180.07 81.8801C1177.26 81.7075 1174.62 80.4912 1172.66 78.47ZM1185.25 68.17C1185.25 63.07 1183.48 60.0601 1179.32 60.0601C1177.4 60.0601 1175.32 60.9901 1173.32 63.1301V74.6201C1174.84 76.0641 1176.84 76.8973 1178.93 76.9601C1182.49 77.0001 1185.25 73.94 1185.25 68.17Z" fill="#333333"/>
<path d="M1197.83 71.5497V55.7397H1203.83V70.7397C1203.83 74.8497 1205.08 76.7397 1208.62 76.7397C1211.01 76.7397 1212.72 75.7398 1215.01 72.9398V55.7397H1221.01V81.2698H1216.12L1215.66 77.2698H1215.45C1213.06 80.0798 1210.2 81.9498 1206.4 81.9498C1200.43 81.8998 1197.83 78.1497 1197.83 71.5497Z" fill="#333333"/>
<path d="M1227.52 55.7397H1233.52L1238.52 68.9998C1239.45 71.5498 1240.23 74.0998 1241.06 76.6998H1241.27C1242.1 74.0998 1242.88 71.5498 1243.82 68.9998L1248.76 55.7397H1254.48L1244.55 81.2698H1237.73L1227.52 55.7397Z" fill="#333333"/>
<path d="M1260.23 71.5497V55.7397H1266.23V70.7397C1266.23 74.8497 1267.48 76.7397 1271.01 76.7397C1273.41 76.7397 1275.12 75.7398 1277.41 72.9398V55.7397H1283.41V81.2698H1278.52L1278.05 77.2698H1277.85C1275.45 80.0798 1272.59 81.9498 1268.85 81.9498C1262.83 81.8998 1260.23 78.1497 1260.23 71.5497Z" fill="#333333"/>
<path d="M1291 77.9999L1293.6 74.2C1296.77 76.3311 1300.5 77.4536 1304.32 77.4199C1307.85 77.4199 1309.52 76.0699 1309.52 74.3599C1309.52 72.6499 1308.37 71.7599 1302.44 70.5099C1295.63 69.0999 1292.56 66.6599 1292.56 62.8099C1292.56 58.3399 1296.62 55.1699 1303.8 55.1699C1307.6 55.2556 1311.3 56.4285 1314.46 58.5499L1311.7 62.2399C1309.2 60.5992 1306.27 59.714 1303.28 59.6899C1299.9 59.6899 1298.54 60.9399 1298.54 62.4999C1298.54 64.3199 1300.47 64.9399 1305.2 65.9799C1313.36 67.7999 1315.5 69.9799 1315.5 74.0399C1315.5 78.4099 1311.28 81.95 1303.5 81.95C1299.04 81.8556 1294.7 80.4848 1291 77.9999Z" fill="#333333"/>
<path d="M1331.57 87.9999C1331.57 84.9399 1333.65 82.6999 1336.04 81.2399H1334.43V60.4399H1323.36V55.71H1340.41V81.4C1337.14 82.75 1335.73 84.83 1335.73 86.7C1335.73 88.57 1337.08 89.2999 1338.64 89.2999C1339.56 89.2632 1340.44 88.9572 1341.19 88.4199L1342.65 91.1199C1341.13 92.3314 1339.24 92.9937 1337.29 92.9999C1334.07 92.9999 1331.57 91.3599 1331.57 87.9999ZM1332.72 46.9999C1332.77 45.9045 1333.25 44.8715 1334.04 44.115C1334.83 43.3585 1335.89 42.9365 1336.98 42.9365C1338.08 42.9365 1339.14 43.3585 1339.93 44.115C1340.72 44.8715 1341.2 45.9045 1341.25 46.9999C1341.2 48.0954 1340.72 49.1284 1339.93 49.8849C1339.14 50.6414 1338.08 51.0634 1336.98 51.0634C1335.89 51.0634 1334.83 50.6414 1334.04 49.8849C1333.25 49.1284 1332.77 48.0954 1332.72 46.9999Z" fill="#333333"/>
<path d="M1383.88 64.3697C1383.88 53.1897 1390.49 46.6397 1399.33 46.6397C1401.14 46.6352 1402.94 47.0122 1404.59 47.7461C1406.25 48.4801 1407.73 49.5545 1408.95 50.8997L1405.62 54.6497C1404.84 53.7553 1403.87 53.0441 1402.78 52.5671C1401.7 52.09 1400.52 51.8587 1399.33 51.8897C1393.92 51.8897 1390.12 56.5696 1390.12 64.2196C1390.12 71.8696 1393.4 76.6497 1399.43 76.6497C1401.09 76.7372 1402.73 76.1984 1404.01 75.1397V67.8097H1398.13V62.8597H1409.47V77.8597C1406.65 80.4937 1402.93 81.9467 1399.07 81.9197C1390.44 81.8997 1383.88 75.6597 1383.88 64.3697Z" fill="#333333"/>
<path d="M1415.34 68.5302C1415.34 60.0102 1421.48 55.1201 1428.19 55.1201C1434.9 55.1201 1441 60.0002 1441 68.5302C1441 77.0602 1434.87 81.9001 1428.16 81.9001C1421.45 81.9001 1415.34 77.0002 1415.34 68.5302ZM1434.84 68.5302C1434.84 63.3902 1432.35 60.0101 1428.19 60.0101C1424.03 60.0101 1421.53 63.3902 1421.53 68.5302C1421.53 73.6702 1424.03 77.0101 1428.19 77.0101C1432.35 77.0101 1434.84 73.6302 1434.84 68.5302Z" fill="#333333"/>
<path d="M1446.54 68.5302C1446.54 60.0102 1452.68 55.1201 1459.39 55.1201C1466.1 55.1201 1472.23 60.0102 1472.23 68.5302C1472.23 77.0502 1466.1 81.9001 1459.39 81.9001C1452.68 81.9001 1446.54 77.0002 1446.54 68.5302ZM1466.04 68.5302C1466.04 63.3902 1463.55 60.0101 1459.39 60.0101C1455.23 60.0101 1452.73 63.3902 1452.73 68.5302C1452.73 73.6702 1455.23 77.0101 1459.39 77.0101C1463.55 77.0101 1466 73.6302 1466 68.5302H1466.04Z" fill="#333333"/>
<path d="M1478.21 85.7498C1478.21 83.7498 1479.61 81.8498 1482.27 80.3898V80.1798C1481.49 79.772 1480.84 79.1603 1480.38 78.4099C1479.92 77.6596 1479.68 76.7989 1479.67 75.9198C1479.77 74.9368 1480.09 73.9906 1480.63 73.1582C1481.16 72.3258 1481.88 71.6308 1482.73 71.1298V70.9298C1481.69 70.1712 1480.86 69.1746 1480.29 68.0241C1479.72 66.8737 1479.43 65.6031 1479.46 64.3198C1479.46 58.4398 1484.35 55.1198 1489.96 55.1198C1491.32 55.0971 1492.67 55.3068 1493.96 55.7398H1504.41V60.3198H1498.53C1499.57 61.479 1500.16 62.9722 1500.2 64.5299C1500.2 70.1999 1495.67 73.2099 1489.95 73.2099C1488.62 73.1747 1487.3 72.9318 1486.05 72.4898C1485.59 72.6998 1485.2 73.0358 1484.92 73.4589C1484.65 73.8819 1484.5 74.3747 1484.49 74.8798C1484.49 76.5398 1486.16 77.2699 1489.33 77.2699H1494.53C1501.13 77.2699 1504.53 79.0398 1504.53 83.5098C1504.53 88.5098 1498.81 92.5098 1489.81 92.5098C1482.84 92.5598 1478.21 90.3198 1478.21 85.7498ZM1498.8 84.4998C1498.8 82.4998 1497.09 81.9998 1493.66 81.9998H1489.6C1488.29 82.04 1486.98 81.9191 1485.7 81.6398C1483.88 82.6398 1483.2 83.7698 1483.2 84.9698C1483.2 87.2498 1485.85 88.6098 1490.59 88.6098C1495.58 88.6098 1498.8 86.6798 1498.8 84.4998ZM1494.8 64.3198C1494.75 63.3753 1494.42 62.4664 1493.86 61.7054C1493.3 60.9444 1492.53 60.3646 1491.64 60.0379C1490.75 59.7111 1489.79 59.6516 1488.87 59.8667C1487.95 60.0817 1487.11 60.562 1486.46 61.2481C1485.81 61.9342 1485.37 62.7961 1485.2 63.7272C1485.04 64.6583 1485.15 65.6178 1485.52 66.4871C1485.89 67.3565 1486.51 68.0975 1487.3 68.6187C1488.09 69.1399 1489.01 69.4184 1489.96 69.4198C1490.62 69.4342 1491.28 69.31 1491.89 69.0553C1492.5 68.8006 1493.05 68.421 1493.51 67.9407C1493.96 67.4605 1494.31 66.8904 1494.54 66.2668C1494.76 65.6432 1494.85 64.9801 1494.8 64.3198Z" fill="#333333"/>
<path d="M1517.94 72.0001V49.29H1509.88V44.5601H1523.88V72.2801C1523.88 75.7101 1525.88 77.0101 1528.45 77.0101C1529.96 76.9783 1531.45 76.638 1532.82 76.0101L1534.23 80.4301C1531.95 81.4081 1529.48 81.9051 1527 81.8901C1521.11 81.9001 1517.94 78.2601 1517.94 72.0001Z" fill="#333333"/>
<path d="M1540.56 68.4799C1540.51 66.7249 1540.82 64.9781 1541.46 63.345C1542.11 61.7119 1543.08 60.2263 1544.31 58.9778C1545.54 57.7293 1547.02 56.7439 1548.65 56.0808C1550.27 55.4178 1552.01 55.0909 1553.77 55.1199C1561.36 55.1199 1565.57 60.1199 1565.57 67.2299C1565.56 68.2349 1565.47 69.2375 1565.31 70.2299H1546.54C1547.21 74.9599 1550.54 77.2299 1555.33 77.2299C1557.87 77.1864 1560.35 76.4498 1562.5 75.0999L1564.5 78.84C1561.52 80.7783 1558.05 81.8197 1554.5 81.84C1546.75 81.9 1540.56 76.9999 1540.56 68.4799ZM1546.69 65.9799H1560.27C1559.85 61.8199 1557.56 59.7399 1553.92 59.7399C1550.28 59.7399 1547.47 61.8799 1546.69 65.9999V65.9799Z" fill="#333333"/>
<path d="M1575.34 55.7397H1580.28L1580.8 61.5097H1580.96C1583.56 57.3997 1587.41 55.1197 1591.83 55.1197C1593.53 55.04 1595.23 55.3836 1596.77 56.1197L1595.52 61.1197C1594.04 60.5865 1592.47 60.3224 1590.89 60.3397C1587.41 60.3397 1583.98 62.1597 1581.38 67.0997V81.1897H1575.38L1575.34 55.7397Z" fill="#333333"/>
<path d="M1612.37 87.9999C1612.37 84.9399 1614.45 82.6999 1616.84 81.2399H1615.23V60.4399H1604.15V55.71H1621.21V81.4C1617.93 82.75 1616.53 84.83 1616.53 86.7C1616.53 88.57 1617.88 89.2999 1619.44 89.2999C1620.36 89.2632 1621.24 88.9572 1621.99 88.4199L1623.45 91.1199C1621.92 92.3286 1620.04 92.9906 1618.09 92.9999C1614.87 92.9999 1612.37 91.3599 1612.37 87.9999ZM1613.51 46.9999C1613.56 45.9045 1614.04 44.8715 1614.83 44.115C1615.62 43.3585 1616.68 42.9365 1617.77 42.9365C1618.87 42.9365 1619.93 43.3585 1620.72 44.115C1621.51 44.8715 1621.99 45.9045 1622.04 46.9999C1621.99 48.0954 1621.51 49.1284 1620.72 49.8849C1619.93 50.6414 1618.87 51.0634 1617.77 51.0634C1616.68 51.0634 1615.62 50.6414 1614.83 49.8849C1614.04 49.1284 1613.56 48.0954 1613.51 46.9999Z" fill="#333333"/>
<path d="M1678.65 85.7401C1683.22 81.6001 1685.23 77.1301 1685.23 71.2701C1685.23 65.4101 1683.23 60.9401 1678.65 56.8001L1680.95 54.8901C1683.4 56.858 1685.38 59.3508 1686.74 62.1849C1688.1 65.019 1688.8 68.122 1688.8 71.2651C1688.8 74.4082 1688.1 77.5112 1686.74 80.3453C1685.38 83.1794 1683.4 85.6723 1680.95 87.6401L1678.65 85.7401Z" fill="white"/>
<path d="M1702.58 86.5301C1705.58 85.3102 1707.12 83.5301 1707.19 80.9901C1707.02 81.005 1706.86 81.005 1706.69 80.9901C1706.25 81.0237 1705.81 80.9654 1705.4 80.8189C1704.99 80.6724 1704.61 80.441 1704.29 80.1396C1703.97 79.8381 1703.72 79.4733 1703.55 79.0687C1703.38 78.664 1703.3 78.2285 1703.31 77.7901C1703.31 77.3484 1703.4 76.9118 1703.58 76.5073C1703.76 76.1027 1704.02 75.7387 1704.34 75.4379C1704.66 75.137 1705.04 74.9057 1705.46 74.7582C1705.88 74.6106 1706.32 74.5501 1706.76 74.5801C1709.32 74.5801 1710.65 76.6401 1710.65 79.9801C1710.65 84.3801 1708.13 87.5101 1703.65 88.9801L1702.58 86.5301ZM1703.02 65.8301C1703.04 65.1297 1703.26 64.4494 1703.66 63.8746C1704.06 63.2998 1704.62 62.8559 1705.27 62.5987C1705.92 62.3415 1706.64 62.2823 1707.32 62.4285C1708.01 62.5748 1708.63 62.92 1709.12 63.421C1709.61 63.9219 1709.95 64.5562 1710.08 65.2445C1710.21 65.9328 1710.13 66.6444 1709.86 67.2903C1709.59 67.9361 1709.13 68.4875 1708.55 68.8752C1707.97 69.263 1707.28 69.4699 1706.58 69.4701C1706.1 69.4829 1705.63 69.3971 1705.18 69.2179C1704.74 69.0387 1704.33 68.77 1704 68.4286C1703.66 68.0871 1703.4 67.6802 1703.23 67.2332C1703.06 66.7862 1702.98 66.3086 1703 65.8301H1703.02Z" fill="white"/>
</svg>
