<svg width="737" height="115" viewBox="0 0 737 115" fill="none" xmlns="http://www.w3.org/2000/svg">
<path d="M737 0.00976562H0V114.01H737V0.00976562Z" fill="#272824"/>
<path d="M13.0602 21.2897H16.0602L16.3502 23.0797H16.4502C17.8002 21.7763 19.5762 21.0055 21.4502 20.9097C25.5502 20.9097 27.8802 24.0397 27.8802 28.9097C27.8802 34.2897 24.5202 37.3897 20.8802 37.3897C19.2699 37.3279 17.7404 36.6683 16.5902 35.5397H16.4902L16.6802 38.2897V43.2197H12.9702L13.0602 21.2897ZM24.1302 28.9397C24.1302 25.7997 23.0502 23.9397 20.4902 23.9397C19.7744 23.986 19.0755 24.1775 18.436 24.5024C17.7965 24.8273 17.2297 25.2789 16.7702 25.8297V32.8997C17.6984 33.7838 18.919 34.2962 20.2002 34.3397C22.4402 34.3397 24.1302 32.4897 24.1302 28.9397Z" fill="#F24370"/>
<path d="M31.8799 31.0098V21.2798H35.5599V30.5298C35.5599 33.0498 36.3299 34.2098 38.4999 34.2098C39.9699 34.2098 41.0299 33.5998 42.4399 31.8698V21.2898H46.1199V37.0098H43.1199L42.8299 34.5098H42.6999C42.0534 35.3813 41.2165 36.0937 40.2529 36.5928C39.2894 37.0919 38.2247 37.3645 37.1399 37.3898C33.4999 37.3798 31.8799 35.0798 31.8799 31.0098Z" fill="#F24370"/>
<path d="M54.79 35.2697H54.69L54.37 36.9997H51.5V14.4097H55.21V20.2297L55.05 22.9797H55.15C56.4308 21.7077 58.1459 20.9681 59.95 20.9097C64.01 20.9097 66.38 24.0397 66.38 28.9097C66.38 34.3197 63.02 37.4197 59.38 37.4197C57.6324 37.3123 55.9912 36.5435 54.79 35.2697ZM62.53 28.9397C62.53 25.7997 61.45 23.9397 58.89 23.9397C58.1742 23.986 57.4753 24.1775 56.8358 24.5024C56.1963 24.8273 55.6295 25.2789 55.17 25.8297V32.8997C56.1064 33.7898 57.3386 34.3026 58.63 34.3397C60.84 34.3397 62.5 32.4897 62.5 28.9397H62.53Z" fill="#F24370"/>
<path d="M75.27 31.2697V17.3197H70.27V14.4097H78.91V31.4597C78.8587 31.8457 78.8951 32.2384 79.0165 32.6084C79.1379 32.9785 79.3411 33.3164 79.6112 33.597C79.8812 33.8776 80.2111 34.0937 80.5762 34.2292C80.9413 34.3647 81.3323 34.4161 81.72 34.3797C82.6483 34.3568 83.5627 34.1494 84.41 33.7697L85.28 36.4897C83.8722 37.0845 82.3583 37.3873 80.83 37.3797C77.22 37.3797 75.27 35.1397 75.27 31.2697Z" fill="#F24370"/>
<path d="M96.7402 24.1998H89.9302V21.2898H100.42V37.0098H96.7402V24.1998ZM95.6802 15.9498C95.7214 15.2816 96.016 14.6543 96.5037 14.1958C96.9915 13.7372 97.6357 13.4819 98.3052 13.4819C98.9746 13.4819 99.6189 13.7372 100.107 14.1958C100.594 14.6543 100.889 15.2816 100.93 15.9498C100.889 16.618 100.594 17.2453 100.107 17.7039C99.6189 18.1624 98.9746 18.4177 98.3052 18.4177C97.6357 18.4177 96.9915 18.1624 96.5037 17.7039C96.016 17.2453 95.7214 16.618 95.6802 15.9498Z" fill="#F24370"/>
<path d="M108.77 29.1599C108.77 23.9099 112.9 20.9099 117.7 20.9099C119.851 20.8661 121.936 21.6542 123.52 23.11L121.76 25.4199C120.695 24.4649 119.32 23.9284 117.89 23.9099C117.186 23.8653 116.481 23.97 115.82 24.2172C115.16 24.4644 114.559 24.8485 114.058 25.3443C113.556 25.8401 113.165 26.4364 112.911 27.0941C112.656 27.7517 112.543 28.4557 112.58 29.1599C112.539 29.8561 112.646 30.553 112.894 31.2047C113.142 31.8565 113.525 32.4484 114.018 32.9415C114.512 33.4346 115.103 33.8177 115.755 34.0656C116.407 34.3135 117.104 34.4207 117.8 34.3799C119.445 34.3204 121.022 33.7113 122.28 32.65L123.81 35.02C122.033 36.5363 119.776 37.3726 117.44 37.3799C112.5 37.3799 108.77 34.3799 108.77 29.1599Z" fill="#F24370"/>
<path d="M147.5 21.2897H150.5L150.79 23.0797H150.88C152.232 21.7794 154.007 21.0091 155.88 20.9097C159.97 20.9097 162.31 24.0397 162.31 28.9097C162.31 34.2897 158.95 37.3897 155.31 37.3897C153.702 37.3293 152.176 36.6693 151.03 35.5397H150.93L151.12 38.2897V43.2197H147.5V21.2897ZM158.5 28.9397C158.5 25.7997 157.41 23.9397 154.85 23.9397C154.136 23.9874 153.439 24.1794 152.801 24.5043C152.164 24.8292 151.598 25.2801 151.14 25.8297V32.8997C152.067 33.7854 153.288 34.2981 154.57 34.3397C156.84 34.3397 158.5 32.4897 158.5 28.9397Z" fill="#F24370"/>
<path d="M166.31 32.7797C166.31 29.2597 169.41 27.4997 177.16 26.9497C177.03 25.1897 175.97 23.8797 173.41 23.8797C171.582 24.0015 169.812 24.5753 168.26 25.5497L166.92 23.0797C169.076 21.7438 171.545 20.9956 174.08 20.9097C178.44 20.9097 180.83 23.3097 180.83 27.6897V37.0097H177.83L177.5 35.0097H177.4C175.74 36.3964 173.679 37.2132 171.52 37.3397C168.5 37.3797 166.31 35.5297 166.31 32.7797ZM177.16 32.5797V29.2597C171.52 29.6397 169.86 30.7897 169.86 32.4897C169.86 33.8997 171.11 34.4897 172.68 34.4897C174.348 34.3846 175.929 33.7104 177.16 32.5797Z" fill="#F24370"/>
<path d="M185.22 39.7495C185.22 38.4995 186.08 37.3495 187.72 36.4595V36.3295C187.241 36.0766 186.839 35.6985 186.557 35.2354C186.275 34.7723 186.124 34.2415 186.12 33.6995C186.181 33.0963 186.382 32.5157 186.709 32.0049C187.036 31.4942 187.478 31.0675 188 30.7595V30.6295C187.366 30.1628 186.853 29.5503 186.505 28.8437C186.156 28.1371 185.983 27.3571 186 26.5695C186 22.9495 189 20.9095 192.46 20.9095C193.299 20.8937 194.135 21.0222 194.93 21.2895H201.36V24.1095H197.74C198.372 24.8258 198.727 25.7445 198.74 26.6995C198.74 30.1795 195.96 32.0395 192.44 32.0395C191.621 32.0192 190.811 31.8672 190.04 31.5895C189.751 31.7135 189.502 31.9178 189.325 32.1783C189.148 32.4388 189.049 32.7446 189.04 33.0595C189.04 34.0595 190.04 34.5395 192.04 34.5395H195.24C199.3 34.5395 201.41 35.6195 201.41 38.3795C201.41 41.4795 197.89 43.9395 192.36 43.9395C188.07 43.9395 185.22 42.5695 185.22 39.7495ZM197.89 38.9795C197.89 37.7695 196.83 37.4495 194.72 37.4495H192.23C191.424 37.4722 190.618 37.395 189.83 37.2195C188.71 37.8595 188.29 38.5395 188.29 39.2695C188.29 40.6795 189.92 41.5095 192.83 41.5095C195.91 41.5095 197.89 40.3295 197.89 39.0095V38.9795ZM195.43 26.5695C195.405 25.9824 195.207 25.4156 194.863 24.9397C194.518 24.4637 194.041 24.0995 193.491 23.8923C192.941 23.685 192.342 23.6438 191.769 23.7739C191.196 23.9039 190.674 24.1994 190.267 24.6237C189.861 25.0479 189.587 25.5823 189.482 26.1604C189.376 26.7385 189.443 27.335 189.673 27.8756C189.904 28.4163 190.288 28.8773 190.778 29.2016C191.268 29.5258 191.843 29.699 192.43 29.6995C192.838 29.7102 193.244 29.6356 193.622 29.4803C193.999 29.3251 194.34 29.0927 194.622 28.798C194.905 28.5033 195.123 28.1528 195.262 27.7691C195.401 27.3853 195.458 26.9767 195.43 26.5695Z" fill="#F24370"/>
<path d="M204.39 29.13C204.36 28.0517 204.549 26.9786 204.944 25.9751C205.34 24.9716 205.934 24.0584 206.692 23.2906C207.449 22.5227 208.355 21.916 209.353 21.5069C210.351 21.0978 211.421 20.8947 212.5 20.91C217.18 20.91 219.77 24.01 219.77 28.36C219.761 28.983 219.707 29.6046 219.61 30.22H208.07C208.48 33.13 210.56 34.54 213.47 34.54C215.036 34.5112 216.564 34.0547 217.89 33.22L219.14 35.53C217.312 36.7214 215.181 37.3635 213 37.38C208.2 37.38 204.39 34.34 204.39 29.13ZM208.16 27.59H216.5C216.25 25.03 214.84 23.75 212.6 23.75C211.516 23.7269 210.461 24.1068 209.641 24.8161C208.821 25.5255 208.293 26.5138 208.16 27.59Z" fill="#F24370"/>
<path d="M243.14 16.0698H246.85V24.4898H254.02V16.0698H257.73V37.0098H254.02V27.7298H246.85V37.0098H243.14V16.0698Z" fill="#4DCECC"/>
<path d="M261.99 29.1296C261.96 28.0505 262.149 26.9765 262.545 25.9724C262.941 24.9682 263.537 24.0546 264.295 23.2866C265.054 22.5186 265.96 21.9121 266.96 21.5036C267.959 21.0951 269.03 20.893 270.11 20.9096C274.79 20.9096 277.38 24.0097 277.38 28.3597C277.371 28.9827 277.317 29.6042 277.22 30.2196H265.67C266.08 33.1296 268.16 34.5396 271.07 34.5396C272.636 34.5109 274.164 34.0544 275.49 33.2196L276.74 35.5296C274.909 36.7224 272.775 37.3645 270.59 37.3796C265.79 37.3796 261.99 34.3396 261.99 29.1296ZM265.76 27.5896H274.11C273.86 25.0296 272.45 23.7496 270.21 23.7496C269.124 23.724 268.067 24.1028 267.245 24.8124C266.423 25.522 265.893 26.5117 265.76 27.5896Z" fill="#4DCECC"/>
<path d="M286.5 31.2697V17.3197H281.5V14.4097H290.14V31.4597C290.087 31.8461 290.122 32.2395 290.242 32.6105C290.363 32.9814 290.566 33.3201 290.837 33.6012C291.107 33.8823 291.438 34.0983 291.804 34.2332C292.17 34.368 292.562 34.4181 292.95 34.3797C293.878 34.3568 294.793 34.1494 295.64 33.7697L296.5 36.4897C295.096 37.0856 293.585 37.3884 292.06 37.3797C288.42 37.3797 286.5 35.1397 286.5 31.2697Z" fill="#4DCECC"/>
<path d="M305.67 31.2697V17.3197H300.67V14.4097H309.31V31.4597C309.257 31.8461 309.292 32.2395 309.412 32.6105C309.533 32.9814 309.736 33.3201 310.007 33.6012C310.277 33.8823 310.608 34.0983 310.974 34.2332C311.34 34.368 311.732 34.4181 312.12 34.3797C313.048 34.3568 313.963 34.1494 314.81 33.7697L315.67 36.4897C314.266 37.0856 312.755 37.3884 311.23 37.3797C307.62 37.3797 305.67 35.1397 305.67 31.2697Z" fill="#4DCECC"/>
<path d="M319.33 29.1596C319.391 27.6093 319.906 26.1112 320.812 24.8516C321.718 23.5921 322.974 22.6267 324.424 22.0755C325.874 21.5244 327.455 21.4119 328.968 21.752C330.482 22.0921 331.862 22.8699 332.937 23.9885C334.012 25.1071 334.735 26.517 335.014 28.043C335.294 29.569 335.119 31.1436 334.511 32.5708C333.903 33.998 332.888 35.2148 331.594 36.0698C330.299 36.9249 328.782 37.3803 327.23 37.3796C326.161 37.3948 325.1 37.1902 324.114 36.7783C323.127 36.3664 322.236 35.7561 321.495 34.9853C320.754 34.2144 320.18 33.2995 319.807 32.2973C319.435 31.2952 319.273 30.2271 319.33 29.1596ZM331.33 29.1596C331.33 25.9896 329.79 23.9096 327.23 23.9096C324.67 23.9096 323.14 25.9896 323.14 29.1596C323.14 32.3296 324.67 34.3796 327.23 34.3796C329.79 34.3796 331.33 32.2996 331.33 29.1596Z" fill="#4DCECC"/>
<path d="M337.06 16.0698H341.06L342.11 28.1998C342.24 29.9598 342.34 31.2698 342.4 33.1998H342.5C342.85 31.2498 343.14 29.9398 343.5 28.1998L345.23 21.4198H348.01L349.64 28.1998C350.06 29.9298 350.35 31.1998 350.64 33.1998H350.77C350.86 31.1998 350.89 29.9098 351.02 28.1998L352.02 16.0698H355.77L352.99 37.0098H348.8L347.17 29.5898C346.868 28.3013 346.644 26.9955 346.5 25.6798H346.4C346.21 26.9598 346.05 28.2698 345.76 29.5898L344.16 37.0098H340.03L337.06 16.0698Z" fill="#4DCECC"/>
<path d="M357.73 29.1599C357.73 23.9099 361.5 20.9099 365.63 20.9099C367.272 20.842 368.897 21.2668 370.296 22.1296C371.694 22.9924 372.803 24.2537 373.48 25.7516C374.156 27.2494 374.369 28.9153 374.091 30.5351C373.814 32.155 373.058 33.6548 371.921 34.8418C370.785 36.0288 369.319 36.8488 367.713 37.1964C366.106 37.544 364.433 37.4034 362.907 36.7925C361.381 36.1816 360.073 35.1284 359.151 33.7683C358.228 32.4082 357.733 30.8033 357.73 29.1599ZM369.73 29.1599C369.73 25.9899 368.19 23.9099 365.63 23.9099C363.07 23.9099 361.5 26.0099 361.5 29.1599C361.5 32.3099 363.03 34.3799 365.59 34.3799C368.15 34.3799 369.73 32.2999 369.73 29.1599Z" fill="#4DCECC"/>
<path d="M379.39 21.2899H382.39L382.71 24.8399H382.81C383.486 23.6587 384.459 22.6747 385.633 21.9853C386.806 21.296 388.139 20.9253 389.5 20.9099C390.537 20.8748 391.567 21.0946 392.5 21.5499L391.73 24.6499C390.816 24.3232 389.851 24.1607 388.88 24.1699C386.74 24.1699 384.62 25.2899 383.02 28.3299V37.0099H379.31L379.39 21.2899Z" fill="#4DCECC"/>
<path d="M401.66 31.2697V17.3197H396.71V14.4097H405.34V31.4597C405.288 31.8466 405.325 32.2403 405.447 32.6111C405.569 32.982 405.773 33.3204 406.044 33.6013C406.315 33.8821 406.647 34.098 407.013 34.2328C407.379 34.3676 407.771 34.4178 408.16 34.3797C409.088 34.3568 410.003 34.1494 410.85 33.7697L411.71 36.4897C410.303 37.0864 408.788 37.3892 407.26 37.3797C403.62 37.3797 401.66 35.1397 401.66 31.2697Z" fill="#4DCECC"/>
<path d="M415.33 29.1597C415.33 24.0397 418.69 20.9097 422.27 20.9097C423.079 20.9026 423.88 21.0634 424.624 21.3818C425.368 21.7002 426.037 22.1694 426.59 22.7597H426.69L426.5 20.1097V14.4097H430.21V37.0097H427.21L426.92 35.1897H426.82C425.581 36.4991 423.89 37.2861 422.09 37.3897C418.02 37.3797 415.33 34.3397 415.33 29.1597ZM426.5 32.4597V25.3797C426.064 24.9283 425.542 24.5685 424.965 24.3212C424.388 24.0739 423.768 23.9442 423.14 23.9397C420.96 23.9397 419.14 25.8297 419.14 29.1297C419.14 32.4297 420.54 34.3397 422.94 34.3397C423.638 34.3189 424.321 34.1387 424.938 33.8128C425.555 33.4869 426.09 33.0241 426.5 32.4597Z" fill="#4DCECC"/>
<path d="M459.84 37.4499C459.84 35.1399 460.16 33.7399 460.16 31.6199C460.16 30.4699 459.26 29.2599 455.65 29.2199V27.0099C459.26 27.0099 460.16 25.7699 460.16 24.6199C460.16 22.6199 459.84 20.9999 459.84 18.7899C459.84 15.3999 461.73 14.3799 465.79 14.3799H468V16.3799H466.5C463.5 16.3799 462.88 17.0199 462.88 18.9399C462.88 20.6999 463.04 22.4899 463.04 24.4399C463.04 26.6799 462.24 27.6799 460.04 28.0599V28.1899C462.28 28.5699 463.04 29.5599 463.04 31.7999C463.04 33.8499 462.88 35.4499 462.88 37.3099C462.88 39.1699 463.52 39.8699 466.5 39.8699H467.97V41.8699H465.76C461.73 41.8599 459.84 40.8399 459.84 37.4499Z" fill="white"/>
<path d="M146.98 103.14L147.68 100.26C148.106 100.402 148.551 100.479 149 100.49C149.835 100.51 150.654 100.258 151.333 99.773C152.013 99.288 152.517 98.5956 152.77 97.7998L153.16 96.7998L146.16 81.2798H149.84L153.07 88.9898C153.64 90.3998 154.22 91.9898 154.8 93.5998H154.92C155.4 92.0898 155.98 90.4598 156.49 88.9898L159.34 81.2798H162.83L156.27 97.6898C154.92 101.25 153.04 103.45 149.27 103.45C148.495 103.466 147.723 103.361 146.98 103.14Z" fill="#F24370"/>
<path d="M165.73 89.1596C165.791 87.6098 166.306 86.112 167.211 84.8526C168.116 83.5933 169.372 82.6278 170.822 82.0764C172.271 81.525 173.851 81.4119 175.365 81.7512C176.878 82.0905 178.258 82.8673 179.334 83.9848C180.409 85.1024 181.132 86.5115 181.413 88.0369C181.694 89.5622 181.52 91.1365 180.914 92.5639C180.307 93.9913 179.294 95.2088 178.001 96.065C176.707 96.9212 175.191 97.3784 173.64 97.3796C172.571 97.3947 171.509 97.1901 170.522 96.7783C169.535 96.3665 168.643 95.7564 167.902 94.9857C167.16 94.215 166.585 93.3002 166.211 92.298C165.838 91.2958 165.674 90.2276 165.73 89.1596ZM177.73 89.1596C177.73 85.9896 176.2 83.9096 173.64 83.9096C171.08 83.9096 169.5 86.0096 169.5 89.1596C169.5 92.3096 171.04 94.3796 173.6 94.3796C176.16 94.3796 177.73 92.2996 177.73 89.1596Z" fill="#F24370"/>
<path d="M185.5 91.0098V81.2798H189.18V90.5298C189.18 93.0498 189.94 94.2098 192.12 94.2098C193.59 94.2098 194.65 93.5998 196.06 91.8698V81.2898H199.73V97.0098H196.73L196.44 94.5098H196.31C195.662 95.3826 194.824 96.0958 193.859 96.595C192.893 97.0941 191.827 97.366 190.74 97.3898C187.08 97.3798 185.5 95.0798 185.5 91.0098Z" fill="#F24370"/>
<path d="M223.91 92.7797C223.91 89.2597 227.01 87.4997 234.75 86.9497C234.63 85.1897 233.57 83.8797 231.01 83.8797C229.182 84.0015 227.412 84.5753 225.86 85.5497L224.5 83.0797C226.656 81.7438 229.125 80.9956 231.66 80.9097C236.01 80.9097 238.41 83.3097 238.41 87.6897V97.0097H235.41L235.12 95.0597H235.02C233.361 96.4464 231.299 97.2633 229.14 97.3897C226.08 97.3797 223.91 95.5297 223.91 92.7797ZM234.75 92.5797V89.2597C229.12 89.6397 227.46 90.7897 227.46 92.4897C227.46 93.8997 228.71 94.4897 230.27 94.4897C231.938 94.3862 233.52 93.7118 234.75 92.5797Z" fill="#F24370"/>
<path d="M245 81.2899H248L248.31 84.8399H248.41C249.086 83.6587 250.059 82.6747 251.232 81.9853C252.406 81.296 253.739 80.9253 255.1 80.9099C256.137 80.8748 257.167 81.0946 258.1 81.5499L257.33 84.6499C256.416 84.3216 255.451 84.159 254.48 84.1699C252.34 84.1699 250.23 85.2899 248.63 88.3299V97.0099H245V81.2899Z" fill="#F24370"/>
<path d="M261.99 89.1296C261.96 88.0505 262.149 86.9765 262.545 85.9724C262.941 84.9682 263.537 84.0546 264.295 83.2866C265.054 82.5186 265.96 81.9121 266.96 81.5036C267.959 81.0951 269.03 80.893 270.11 80.9096C274.79 80.9096 277.38 84.0097 277.38 88.3597C277.371 88.9827 277.317 89.6042 277.22 90.2196H265.67C266.08 93.1296 268.16 94.5396 271.07 94.5396C272.636 94.5109 274.164 94.0544 275.49 93.2196L276.74 95.5296C274.909 96.7224 272.775 97.3645 270.59 97.3796C265.79 97.3796 261.99 94.3396 261.99 89.1296ZM265.76 87.5896H274.11C273.86 85.0296 272.45 83.7496 270.21 83.7496C269.124 83.724 268.067 84.1028 267.245 84.8124C266.423 85.522 265.893 86.5117 265.76 87.5896Z" fill="#F24370"/>
<path d="M305.67 91.2697V77.3197H300.67V74.4097H309.31V91.4597C309.257 91.8461 309.292 92.2395 309.412 92.6105C309.533 92.9814 309.736 93.3201 310.007 93.6012C310.277 93.8823 310.608 94.0983 310.974 94.2332C311.34 94.368 311.732 94.4181 312.12 94.3797C313.048 94.3568 313.963 94.1494 314.81 93.7697L315.67 96.4897C314.266 97.0856 312.755 97.3884 311.23 97.3797C307.62 97.3797 305.67 95.1397 305.67 91.2697Z" fill="#F24370"/>
<path d="M319.87 91.0098V81.2798H323.55V90.5298C323.55 93.0498 324.32 94.2098 326.5 94.2098C327.97 94.2098 329.03 93.5998 330.43 91.8698V81.2898H334.11V97.0098H331.11L330.82 94.5098H330.69C330.043 95.3826 329.204 96.0958 328.239 96.595C327.273 97.0941 326.207 97.366 325.12 97.3898C321.5 97.3798 319.87 95.0798 319.87 91.0098Z" fill="#F24370"/>
<path d="M339.17 89.1598C339.17 83.9098 343.3 80.9098 348.1 80.9098C350.251 80.868 352.335 81.6559 353.92 83.1098L352.16 85.4198C351.094 84.4663 349.72 83.93 348.29 83.9098C347.586 83.8651 346.881 83.9698 346.22 84.217C345.56 84.4642 344.959 84.8484 344.458 85.3442C343.956 85.84 343.565 86.4363 343.311 87.0939C343.056 87.7515 342.943 88.4555 342.98 89.1598C342.939 89.855 343.046 90.551 343.294 91.202C343.541 91.8531 343.923 92.4445 344.415 92.9374C344.907 93.4303 345.498 93.8137 346.148 94.0622C346.799 94.3108 347.495 94.419 348.19 94.3798C349.835 94.3218 351.413 93.7125 352.67 92.6498L354.21 95.0198C352.432 96.5346 350.175 97.3708 347.84 97.3798C342.91 97.3798 339.17 94.3798 339.17 89.1598Z" fill="#F24370"/>
<path d="M358.91 74.4097H362.62V88.5497H362.75L369.82 81.2897H373.92L367.81 87.5597L374.59 96.9997H370.59L365.59 89.8297L362.59 92.8997V97.0097H358.88L358.91 74.4097Z" fill="#F24370"/>
<path d="M377.38 103.14L378.08 100.26C378.503 100.401 378.944 100.478 379.39 100.49C380.226 100.512 381.047 100.261 381.729 99.7761C382.411 99.2909 382.916 98.5973 383.17 97.7998L383.55 96.7998L376.55 81.2798H380.23L383.46 88.9898C384.04 90.3998 384.62 91.9898 385.19 93.5998H385.32C385.8 92.0898 386.38 90.4598 386.89 88.9898L389.74 81.2798H393.22L386.66 97.6898C385.32 101.25 383.43 103.45 379.66 103.45C378.888 103.465 378.119 103.36 377.38 103.14Z" fill="#F24370"/>
<path d="M419.71 90.6599V84.1999H415.5V81.4499L419.85 81.2899L420.33 76.3599H423.33V81.2899H430.5V84.1999H423.33V90.6599C423.33 93.2599 424.33 94.4398 426.98 94.4398C428.15 94.4386 429.309 94.2217 430.4 93.7999L431.11 96.4899C429.507 97.0705 427.815 97.3715 426.11 97.3799C421.34 97.3799 419.71 94.6999 419.71 90.6599Z" fill="#F24370"/>
<path d="M434.5 89.1597C434.5 83.9097 438.27 80.9097 442.4 80.9097C446.53 80.9097 450.3 83.9097 450.3 89.1597C450.354 90.2305 450.19 91.3012 449.817 92.3066C449.444 93.312 448.871 94.2311 448.132 95.0081C447.393 95.7851 446.504 96.4038 445.519 96.8265C444.534 97.2493 443.472 97.4673 442.4 97.4673C441.328 97.4673 440.267 97.2493 439.282 96.8265C438.296 96.4038 437.407 95.7851 436.668 95.0081C435.929 94.2311 435.356 93.312 434.983 92.3066C434.611 91.3012 434.446 90.2305 434.5 89.1597ZM446.5 89.1597C446.5 85.9897 444.96 83.9097 442.4 83.9097C439.84 83.9097 438.31 85.9897 438.31 89.1597C438.31 92.3297 439.84 94.3797 442.4 94.3797C444.96 94.3797 446.5 92.2997 446.5 89.1597Z" fill="#F24370"/>
<path d="M458.24 88.0998C458.227 85.3026 458.851 82.5391 460.064 80.0184C461.277 77.4977 463.047 75.2857 465.24 73.5498L467.24 75.2398C465.403 76.8421 463.93 78.8193 462.921 81.0384C461.912 83.2575 461.389 85.667 461.389 88.1048C461.389 90.5426 461.912 92.9521 462.921 95.1712C463.93 97.3903 465.403 99.3675 467.24 100.97L465.24 102.66C463.046 100.922 461.275 98.7087 460.063 96.1862C458.85 93.6638 458.227 90.8986 458.24 88.0998Z" fill="white"/>
<path d="M478.5 84.1998H474.15V81.4498L478.5 81.2898V80.4298C478.5 76.7098 480.55 74.0298 485.15 74.0298C486.746 74.026 488.33 74.3176 489.82 74.8898L489.06 77.6098C487.962 77.1607 486.786 76.933 485.6 76.9398C483.2 76.9398 482.14 78.1498 482.14 80.3598V81.2898H488.14V84.1998H482.14V97.0098H478.5V84.1998Z" fill="#4DCECC"/>
<path d="M499.93 84.1998H493.12V81.2898H503.61V97.0098H499.93V84.1998ZM498.93 75.9498C498.971 75.2816 499.266 74.6543 499.754 74.1958C500.241 73.7372 500.886 73.4819 501.555 73.4819C502.225 73.4819 502.869 73.7372 503.357 74.1958C503.844 74.6543 504.139 75.2816 504.18 75.9498C504.139 76.618 503.844 77.2453 503.357 77.7039C502.869 78.1624 502.225 78.4177 501.555 78.4177C500.886 78.4177 500.241 78.1624 499.754 77.7039C499.266 77.2453 498.971 76.618 498.93 75.9498Z" fill="#4DCECC"/>
<path d="M512.25 81.2897H515.25L515.54 83.6597H515.67C516.371 82.8338 517.237 82.1628 518.211 81.6894C519.185 81.216 520.248 80.9504 521.33 80.9097C524.95 80.9097 526.61 83.2097 526.61 87.2697V97.0097H522.9V87.7597C522.9 85.2297 522.1 84.0797 519.96 84.0797C518.42 84.0797 517.37 84.8197 515.96 86.2897V97.0097H512.24L512.25 81.2897Z" fill="#4DCECC"/>
<path d="M530.5 89.1597C530.5 84.0397 533.86 80.9097 537.44 80.9097C538.249 80.9038 539.05 81.0651 539.793 81.3835C540.537 81.7018 541.206 82.1704 541.76 82.7597H541.86L541.66 80.1097V74.4097H545.38V97.0097H542.38L542.09 95.1897H541.99C540.751 96.4991 539.059 97.2861 537.26 97.3897C533.21 97.3797 530.5 94.3397 530.5 89.1597ZM541.66 92.4597V85.3797C541.224 84.9274 540.703 84.5669 540.126 84.3196C539.549 84.0723 538.928 83.9431 538.3 83.9397C536.13 83.9397 534.3 85.8297 534.3 89.1297C534.3 92.4297 535.71 94.3397 538.11 94.3397C538.811 94.3235 539.499 94.1453 540.12 93.8192C540.741 93.4931 541.279 93.0278 541.69 92.4597H541.66Z" fill="#4DCECC"/>
<path d="M554.81 74.3496H564V76.3496H557.69V99.8396H564V101.84H554.81V74.3496Z" fill="white"/>
<path d="M570.5 99.8499H576.81V76.3599H570.5V74.3599H579.69V101.87H570.5V99.8499Z" fill="white"/>
<path d="M608.25 74.4097H611.96V80.2297L611.74 83.5897H611.84C612.522 82.7792 613.366 82.1217 614.319 81.6599C615.272 81.1981 616.312 80.9424 617.37 80.9097C620.99 80.9097 622.65 83.2097 622.65 87.2697V97.0097H618.94V87.7597C618.94 85.2297 618.14 84.0797 616 84.0797C614.46 84.0797 613.41 84.8197 612 86.2897V97.0097H608.29L608.25 74.4097Z" fill="#F24370"/>
<path d="M626.78 89.1298C626.75 88.0498 626.939 86.975 627.336 85.9701C627.733 84.9653 628.329 84.0512 629.089 83.2831C629.849 82.5149 630.756 81.9086 631.757 81.5007C632.757 81.0929 633.83 80.8918 634.91 80.9098C639.58 80.9098 642.17 84.0098 642.17 88.3598C642.166 88.9831 642.112 89.605 642.01 90.2198H630.5C630.92 93.1298 633 94.5398 635.91 94.5398C637.473 94.5107 638.998 94.0542 640.32 93.2198L641.57 95.5298C639.743 96.7223 637.612 97.3645 635.43 97.3798C630.59 97.3798 626.78 94.3398 626.78 89.1298ZM630.56 87.5898H638.91C638.65 85.0298 637.24 83.7498 635 83.7498C633.915 83.7244 632.86 84.1035 632.039 84.8133C631.218 85.5231 630.691 86.5127 630.56 87.5898Z" fill="#F24370"/>
<path d="M648.19 81.2899H651.19L651.51 84.8399H651.6C652.276 83.6587 653.249 82.6747 654.422 81.9853C655.596 81.296 656.929 80.9253 658.29 80.9099C659.327 80.8748 660.357 81.0946 661.29 81.5499L660.52 84.6499C659.609 84.3223 658.648 84.1598 657.68 84.1699C655.53 84.1699 653.42 85.2899 651.82 88.3299V97.0099H648.11L648.19 81.2899Z" fill="#F24370"/>
<path d="M665.18 89.1298C665.15 88.0498 665.339 86.975 665.736 85.9701C666.133 84.9653 666.729 84.0512 667.489 83.2831C668.249 82.5149 669.156 81.9086 670.156 81.5007C671.157 81.0929 672.23 80.8918 673.31 80.9098C677.98 80.9098 680.57 84.0098 680.57 88.3598C680.566 88.9831 680.512 89.605 680.41 90.2198H668.86C669.28 93.1298 671.36 94.5398 674.27 94.5398C675.833 94.5107 677.358 94.0542 678.68 93.2198L679.93 95.5298C678.103 96.7223 675.971 97.3645 673.79 97.3798C668.99 97.3798 665.18 94.3398 665.18 89.1298ZM668.96 87.5898H677.31C677.05 85.0298 675.64 83.7498 673.4 83.7498C672.315 83.7244 671.26 84.1035 670.439 84.8133C669.618 85.5231 669.091 86.5127 668.96 87.5898Z" fill="#F24370"/>
<path d="M686.4 101.01C688.237 99.4076 689.71 97.4304 690.719 95.2113C691.728 92.9922 692.25 90.5827 692.25 88.1449C692.25 85.7071 691.728 83.2975 690.719 81.0784C689.71 78.8593 688.237 76.8821 686.4 75.2798L688.4 73.5898C690.578 75.3394 692.335 77.5554 693.543 80.0744C694.75 82.5934 695.377 85.3513 695.377 88.1449C695.377 90.9384 694.75 93.6963 693.543 96.2153C692.335 98.7344 690.578 100.95 688.4 102.7L686.4 101.01Z" fill="white"/>
<path d="M728.64 97.4499C728.64 95.1399 728.96 93.7399 728.96 91.6199C728.96 90.4699 728.06 89.2599 724.44 89.2199V87.0099C728.06 87.0099 728.96 85.7699 728.96 84.6199C728.96 82.6199 728.64 80.9999 728.64 78.7899C728.64 75.3999 730.52 74.3799 734.64 74.3799H736.84V76.3799H735.37C732.37 76.3799 731.76 77.0199 731.76 78.9399C731.76 80.6999 731.92 82.4899 731.92 84.4399C731.92 86.6799 731.12 87.6799 728.92 88.0599V88.1899C731.16 88.5699 731.92 89.5599 731.92 91.7999C731.92 93.8499 731.76 95.4499 731.76 97.3099C731.76 99.1699 732.4 99.8699 735.37 99.8699H736.84V101.87H734.64C730.5 101.86 728.64 100.84 728.64 97.4499Z" fill="white"/>
</svg>
