<svg id="Layer_1" data-name="Layer 1" xmlns="http://www.w3.org/2000/svg" viewBox="0 0 492.47 186"><defs><style>.cls-1{fill:#f23d2e;}.cls-2{fill:#48b157;}.cls-3{fill:#437af6;}.cls-4{fill:#f493c2;}.cls-5{fill:#fabd28;}.cls-6{fill:#47b055;}.cls-10,.cls-11,.cls-12,.cls-13,.cls-14,.cls-7,.cls-8,.cls-9{isolation:isolate;}.cls-8,.cls-9{font-size:26px;}.cls-10,.cls-11,.cls-12,.cls-13,.cls-14,.cls-8,.cls-9{font-family:Futura-Bold, Futura;font-weight:700;}.cls-9{letter-spacing:-0.01em;}.cls-10,.cls-11,.cls-12,.cls-13,.cls-14{font-size:37.33px;}.cls-10{letter-spacing:-0.03em;}.cls-11{letter-spacing:-0.01em;}.cls-13{letter-spacing:-0.05em;}.cls-14{letter-spacing:-0.01em;}</style></defs><title>dark-06</title><polygon class="cls-1" points="89.13 128.64 0 128.64 44.57 65.79 89.13 2.95 133.7 65.79 178.26 128.64 89.13 128.64"/><polygon class="cls-2" points="89.13 183.09 0 183.09 44.57 120.25 89.13 57.4 133.7 120.25 178.26 183.09 89.13 183.09"/><polygon class="cls-3" points="89.13 128.64 38.62 128.64 63.88 93.02 89.13 57.4 114.39 93.02 139.65 128.64 89.13 128.64"/><path class="cls-4" d="M205.92,4.57a92.84,92.84,0,0,0-10.14.55V63.79a35.26,35.26,0,1,1,0,67.54V190A93,93,0,1,0,205.92,4.55Z" transform="translate(0 -4.55)"/><path class="cls-5" d="M492.47,131v59.54H209V132.69A70,70,0,0,0,231.56,131Z" transform="translate(0 -4.55)"/><path class="cls-5" d="M205.92,4.57a92.84,92.84,0,0,0-10.14.55V63.79a35.26,35.26,0,1,1,0,67.54V190A93,93,0,1,0,205.92,4.55Z" transform="translate(0 -4.55)"/><path class="cls-6" d="M217.05,131a35.41,35.41,0,0,1-21.27.3V190a93.07,93.07,0,0,0,96.93-59Z" transform="translate(0 -4.55)"/><g class="cls-7"><text class="cls-8" transform="translate(284.41 166.33)">N</text><text class="cls-9" transform="translate(308.07 166.33)">OMADOMAS</text></g><g class="cls-7"><text class="cls-10" transform="translate(307.07 110.58)">A</text><text class="cls-11" transform="translate(335.74 110.58)">GE</text><text class="cls-12" transform="translate(389.11 110.58)">N</text><text class="cls-11" transform="translate(423.12 110.58)">CY</text></g><g class="cls-7"><text class="cls-11" transform="translate(312.55 65.79)">DIGI</text><text class="cls-13" transform="translate(399.67 65.79)">T</text><text class="cls-14" transform="translate(417.92 65.79)">AL</text></g></svg>