<svg id="Layer_1" data-name="Layer 1" xmlns="http://www.w3.org/2000/svg" viewBox="0 0 492.46 186"><defs><style>.cls-1{fill:#f23d2e;}.cls-2{fill:#48b157;}.cls-3{fill:#437af6;}.cls-4{fill:#f493c2;}.cls-5{fill:#fabd28;}.cls-6{fill:#47b055;}.cls-7{isolation:isolate;}.cls-8{fill:#fff;}</style></defs><title>logo</title><polygon class="cls-1" points="89.13 128.64 0 128.64 44.56 65.79 89.13 2.95 133.69 65.79 178.26 128.64 89.13 128.64"/><polygon class="cls-2" points="89.13 183.09 0 183.09 44.56 120.25 89.13 57.4 133.69 120.25 178.26 183.09 89.13 183.09"/><polygon class="cls-3" points="89.13 128.64 38.61 128.64 63.87 93.02 89.13 57.4 114.38 93.02 139.64 128.64 89.13 128.64"/><path class="cls-4" d="M205.91,2.9a95.4,95.4,0,0,0-10.14.55V62.12a35.26,35.26,0,1,1,0,67.54v58.67A93,93,0,1,0,205.91,2.88Z" transform="translate(0 -2.88)"/><path class="cls-5" d="M492.46,129.33v59.54H209V131a69.67,69.67,0,0,0,22.57-1.69Z" transform="translate(0 -2.88)"/><path class="cls-5" d="M205.91,2.9a95.4,95.4,0,0,0-10.14.55V62.12a35.26,35.26,0,1,1,0,67.54v58.67A93,93,0,1,0,205.91,2.88Z" transform="translate(0 -2.88)"/><path class="cls-6" d="M217,129.33a35.33,35.33,0,0,1-21.27.3v58.7a93.07,93.07,0,0,0,96.93-59Z" transform="translate(0 -2.88)"/><g class="cls-7"><g class="cls-7"><path class="cls-8" d="M286.45,169.21v-19.6h5.1l9.41,12v-12H306v19.6H301l-9.41-12v12Z" transform="translate(0 -2.88)"/></g><g class="cls-7"><path class="cls-8" d="M309.23,159.41a10.24,10.24,0,0,1,3-7.36,10.45,10.45,0,0,1,3.42-2.19,12.36,12.36,0,0,1,8.75,0,10.59,10.59,0,0,1,3.45,2.19,10.06,10.06,0,0,1,2.24,3.29,10.63,10.63,0,0,1,0,8.14,10,10,0,0,1-2.24,3.29,10.45,10.45,0,0,1-3.45,2.2,12.51,12.51,0,0,1-8.75,0,10.31,10.31,0,0,1-3.42-2.2,10.09,10.09,0,0,1-2.23-3.29A10.2,10.2,0,0,1,309.23,159.41Zm5.33,0a5.31,5.31,0,0,0,.44,2.16,5.66,5.66,0,0,0,1.2,1.72,5.54,5.54,0,0,0,1.75,1.13,5.82,5.82,0,0,0,4.24,0,5.64,5.64,0,0,0,1.77-1.13,5.52,5.52,0,0,0,1.21-1.72,5.52,5.52,0,0,0,0-4.32,5.46,5.46,0,0,0-3-2.84,5.69,5.69,0,0,0-4.24,0,5.38,5.38,0,0,0-1.75,1.13,5.61,5.61,0,0,0-1.2,1.71A5.31,5.31,0,0,0,314.56,159.41Z" transform="translate(0 -2.88)"/><path class="cls-8" d="M333,169.21l3.33-19.6h5l3.93,10.45,3.9-10.45h5l3.33,19.6h-5.07l-1.69-11.28-4.63,11.28h-2l-4.39-11.28-1.69,11.28Z" transform="translate(0 -2.88)"/><path class="cls-8" d="M372.57,165.81h-7.28l-1.17,3.4h-5.44l7.46-19.6h5.57l7.46,19.6h-5.43Zm-1.36-3.88-2.28-6.52-2.29,6.52Z" transform="translate(0 -2.88)"/><path class="cls-8" d="M381.15,149.61h7.54a8.84,8.84,0,0,1,3.75.81,10.21,10.21,0,0,1,3.07,2.14,9.94,9.94,0,0,1,2.07,3.12,9.52,9.52,0,0,1,.75,3.73,9.67,9.67,0,0,1-.74,3.71,10,10,0,0,1-2,3.13,10.27,10.27,0,0,1-3.07,2.16,9.06,9.06,0,0,1-3.78.8h-7.54Zm5.09,15.29h1.17a6.3,6.3,0,0,0,2.37-.42,5.1,5.1,0,0,0,1.75-1.14,4.85,4.85,0,0,0,1.09-1.73,6.42,6.42,0,0,0,0-4.38,5,5,0,0,0-1.1-1.74,5.12,5.12,0,0,0-1.76-1.15,6.18,6.18,0,0,0-2.34-.41h-1.17Z" transform="translate(0 -2.88)"/><path class="cls-8" d="M400.44,159.41a10.14,10.14,0,0,1,3-7.36,10.25,10.25,0,0,1,3.42-2.19,12.36,12.36,0,0,1,8.75,0,10.44,10.44,0,0,1,3.44,2.19,10.46,10.46,0,0,1,2.25,11.43,10.14,10.14,0,0,1-2.25,3.29,10.3,10.3,0,0,1-3.44,2.2,12.51,12.51,0,0,1-8.75,0,10.11,10.11,0,0,1-3.42-2.2,10.14,10.14,0,0,1-3-7.36Zm5.33,0a5.15,5.15,0,0,0,.44,2.16,5.33,5.33,0,0,0,1.2,1.72,5.43,5.43,0,0,0,1.75,1.13,5.82,5.82,0,0,0,4.24,0,5.64,5.64,0,0,0,1.77-1.13,5.33,5.33,0,0,0,1.2-1.72,5.41,5.41,0,0,0,0-4.32,5.29,5.29,0,0,0-1.2-1.71,5.46,5.46,0,0,0-1.77-1.13,5.69,5.69,0,0,0-4.24,0,5.44,5.44,0,0,0-3,2.84A5.15,5.15,0,0,0,405.77,159.41Z" transform="translate(0 -2.88)"/><path class="cls-8" d="M424.23,169.21l3.32-19.6h5.05l3.92,10.45,3.9-10.45h5.05l3.33,19.6h-5.07L442,157.93l-4.63,11.28h-2L431,157.93l-1.69,11.28Z" transform="translate(0 -2.88)"/><path class="cls-8" d="M463.77,165.81h-7.28l-1.17,3.4h-5.43l7.46-19.6h5.56l7.47,19.6h-5.44Zm-1.35-3.88-2.29-6.52-2.29,6.52Z" transform="translate(0 -2.88)"/><path class="cls-8" d="M483.12,154.63a6.16,6.16,0,0,0-1.67-1,4.33,4.33,0,0,0-1.61-.33,2.61,2.61,0,0,0-1.61.47,1.45,1.45,0,0,0-.63,1.22,1.22,1.22,0,0,0,.32.86,2.61,2.61,0,0,0,.82.58,6,6,0,0,0,1.14.43q.63.18,1.26.39a7.89,7.89,0,0,1,3.65,2.23A5.46,5.46,0,0,1,486,163.1a7,7,0,0,1-.51,2.73,5.58,5.58,0,0,1-1.48,2.1,6.87,6.87,0,0,1-2.39,1.35,10,10,0,0,1-3.21.48,11.82,11.82,0,0,1-6.89-2.21l2.18-4.11a8.82,8.82,0,0,0,2.26,1.51,5.46,5.46,0,0,0,2.21.49,2.62,2.62,0,0,0,1.86-.57,1.72,1.72,0,0,0,.61-1.3,1.86,1.86,0,0,0-.15-.77,1.77,1.77,0,0,0-.52-.59,3.82,3.82,0,0,0-.95-.51c-.39-.16-.86-.33-1.42-.52s-1.3-.44-1.93-.69a6,6,0,0,1-1.7-1,4.7,4.7,0,0,1-1.19-1.57,5.66,5.66,0,0,1-.46-2.41,7,7,0,0,1,.48-2.64,5.81,5.81,0,0,1,3.49-3.34,8.1,8.1,0,0,1,2.82-.47,12.31,12.31,0,0,1,3,.41,12.94,12.94,0,0,1,3,1.18Z" transform="translate(0 -2.88)"/></g></g><g class="cls-7"><g class="cls-7"><path class="cls-8" d="M327.27,108.57H316.81l-1.68,4.89h-7.8L318,85.32h8l10.72,28.14H329ZM325.32,103,322,93.64,318.75,103Z" transform="translate(0 -2.88)"/></g><g class="cls-7"><path class="cls-8" d="M352.38,97.71H366.9a38.78,38.78,0,0,1-.19,4.07,14.44,14.44,0,0,1-.74,3.4,13.61,13.61,0,0,1-2.13,3.9,12.46,12.46,0,0,1-3.15,2.83,15,15,0,0,1-4,1.74,16.94,16.94,0,0,1-4.55.6,15.86,15.86,0,0,1-6-1.09,13.41,13.41,0,0,1-4.64-3,13.6,13.6,0,0,1-3-4.7,17.64,17.64,0,0,1,0-12.1,13.14,13.14,0,0,1,3-4.68,13.88,13.88,0,0,1,4.72-3,16.77,16.77,0,0,1,6.16-1.08,15.28,15.28,0,0,1,7.73,1.91,13.18,13.18,0,0,1,5.26,5.89l-6.94,2.88a7.1,7.1,0,0,0-2.52-3.32,6.28,6.28,0,0,0-3.53-1,7.1,7.1,0,0,0-3,.61,6.58,6.58,0,0,0-2.29,1.76A8.31,8.31,0,0,0,345.6,96a11.23,11.23,0,0,0-.54,3.59,11.38,11.38,0,0,0,.47,3.32,7.55,7.55,0,0,0,1.4,2.65,6.36,6.36,0,0,0,2.31,1.74,7.82,7.82,0,0,0,3.21.61,8.93,8.93,0,0,0,2.09-.24,5.33,5.33,0,0,0,1.82-.79,4.43,4.43,0,0,0,1.32-1.4,5.6,5.6,0,0,0,.71-2.09h-6Z" transform="translate(0 -2.88)"/><path class="cls-8" d="M387.17,91.51h-8.7v4.71h8.22v6.19h-8.22v4.86h8.7v6.19h-16V85.32h16Z" transform="translate(0 -2.88)"/></g><g class="cls-7"><path class="cls-8" d="M392.06,113.46V85.32h7.32l13.51,17.21V85.32h7.28v28.14h-7.28L399.38,96.25v17.21Z" transform="translate(0 -2.88)"/></g><g class="cls-7"><path class="cls-8" d="M446.33,94.72a7.81,7.81,0,0,0-6.27-3.09,7.6,7.6,0,0,0-3,.59,7.28,7.28,0,0,0-2.41,1.63A7.58,7.58,0,0,0,433,96.29a8.47,8.47,0,0,0,0,6.16,7.43,7.43,0,0,0,7,4.7,8.48,8.48,0,0,0,6.31-3v8.66l-.75.26a21.79,21.79,0,0,1-3.13.88,15.78,15.78,0,0,1-2.88.28,14.66,14.66,0,0,1-10.28-4.2,15.31,15.31,0,0,1-3.27-4.74,15.24,15.24,0,0,1,0-12,14.89,14.89,0,0,1,3.25-4.67A15.12,15.12,0,0,1,434,85.63a14.8,14.8,0,0,1,5.64-1.1,15.17,15.17,0,0,1,3.3.36,19.27,19.27,0,0,1,3.42,1.1Z" transform="translate(0 -2.88)"/><path class="cls-8" d="M457.38,100,447.11,85.32h8.74L461.07,93l5.19-7.69H475L464.7,100v13.51h-7.32Z" transform="translate(0 -2.88)"/></g></g><g class="cls-7"><g class="cls-7"><path class="cls-8" d="M315.49,40.53h10.83a12.79,12.79,0,0,1,5.39,1.15,14.77,14.77,0,0,1,4.4,3.08,14.36,14.36,0,0,1,3,4.48,13.86,13.86,0,0,1,0,10.68,14.33,14.33,0,0,1-3,4.5,14.78,14.78,0,0,1-4.4,3.1,12.87,12.87,0,0,1-5.43,1.15H315.49Zm7.32,21.95h1.68a9,9,0,0,0,3.39-.6,7.29,7.29,0,0,0,2.52-1.64A7,7,0,0,0,332,57.75a8.86,8.86,0,0,0,.54-3.15,8.54,8.54,0,0,0-.56-3.14,7.25,7.25,0,0,0-1.58-2.5,7.48,7.48,0,0,0-2.52-1.64,9,9,0,0,0-3.36-.6h-1.68Z" transform="translate(0 -2.88)"/><path class="cls-8" d="M351.77,40.53V68.67h-7.31V40.53Z" transform="translate(0 -2.88)"/><path class="cls-8" d="M371,52.92h14.52a38.78,38.78,0,0,1-.19,4.07,14.44,14.44,0,0,1-.74,3.4,14.11,14.11,0,0,1-2.13,3.9,12.34,12.34,0,0,1-3.16,2.83,14.78,14.78,0,0,1-4,1.74,17,17,0,0,1-4.56.6,15.85,15.85,0,0,1-6-1.09,13.41,13.41,0,0,1-4.64-3,13.6,13.6,0,0,1-3-4.7,17.64,17.64,0,0,1,0-12.1,13.14,13.14,0,0,1,3-4.68,13.88,13.88,0,0,1,4.72-3A16.77,16.77,0,0,1,371,39.74a15.3,15.3,0,0,1,7.73,1.91A13.18,13.18,0,0,1,384,47.54l-6.94,2.88a7.1,7.1,0,0,0-2.52-3.32,6.28,6.28,0,0,0-3.53-1,7.1,7.1,0,0,0-3,.61,6.58,6.58,0,0,0-2.29,1.76,8.31,8.31,0,0,0-1.5,2.74,11.23,11.23,0,0,0-.54,3.59,11.38,11.38,0,0,0,.47,3.32,7.55,7.55,0,0,0,1.4,2.65,6.36,6.36,0,0,0,2.31,1.74,7.82,7.82,0,0,0,3.21.61,9,9,0,0,0,2.09-.24,5.19,5.19,0,0,0,1.81-.79,4.35,4.35,0,0,0,1.33-1.4,5.6,5.6,0,0,0,.71-2.09h-6Z" transform="translate(0 -2.88)"/><path class="cls-8" d="M397.09,40.53V68.67h-7.31V40.53Z" transform="translate(0 -2.88)"/></g><g class="cls-7"><path class="cls-8" d="M413.28,46.72v22H406v-22h-6V40.53H419.3v6.19Z" transform="translate(0 -2.88)"/></g><g class="cls-7"><path class="cls-8" d="M438.11,63.78H427.65L426,68.67h-7.8l10.71-28.14h8l10.72,28.14h-7.81Zm-1.95-5.56-3.28-9.37-3.29,9.37Z" transform="translate(0 -2.88)"/><path class="cls-8" d="M457.74,40.53V62.48h8.77v6.19H450.42V40.53Z" transform="translate(0 -2.88)"/></g></g></svg>