<?xml version="1.0" encoding="utf-8"?>
<!-- Generator: Adobe Illustrator 16.0.0, SVG Export Plug-In . SVG Version: 6.00 Build 0)  -->
<!DOCTYPE svg PUBLIC "-//W3C//DTD SVG 1.1//EN" "http://www.w3.org/Graphics/SVG/1.1/DTD/svg11.dtd">
<svg version="1.1" id="Layer_1" xmlns="http://www.w3.org/2000/svg" xmlns:xlink="http://www.w3.org/1999/xlink" x="0px" y="0px"
	 width="180px" height="39px" viewBox="0 0 180 39" style="enable-background:new 0 0 180 39;" xml:space="preserve">
<style type="text/css">
<![CDATA[
	.st0{fill:#CC0000;}
]]>
</style>
<g>
	<path class="st0" d="M11.1,17.5c6.1,0,10.5-3.1,10.5-9.2c0-5.4-3.6-8.3-9.6-8.3H0.4v3.4l2.3,0.1v21.9c0,0.8-0.5,1.1-1.2,1.1
		l-1.3,0.1v3.3h11.3v-3.4l-3.9-0.1v-9H11.1z M7,14.8L7.6,13V6.3c0-1.5,1.9-2.8,4.3-2.8c2.2,0,4.3,1.1,4.3,5.4c0,2.8-1.2,5.6-4.8,5.6
		c-0.7,0-1.6-0.1-2.4-0.3L7,14.8z"/>
	<path class="st0" d="M62.5,27.2h-2.2V3.2h-6.9v3l1.4,0.1c0.6,0.1,1,0.5,1,1.1v17.4v1.7v3.8h8.2C63,29,62.7,28.6,62.5,27.2z"/>
	<path class="st0" d="M80.3,23.4V10.8c-2.9,0-4.7,0-6.9,0c-3.4,0-6,0.4-7.7,2.4c-1.7,2-2.6,4.7-2.6,8.2c0,2.9,0.6,5.2,1.9,6.9
		c1.3,1.7,3.2,2,5.8,2c2.2,0,4-0.4,5.3-2.3l0.1,0v2.2h3.9V26V23.4z M75.8,24.1c0,0.9-0.4,1.7-1.1,2.3c-0.7,0.7-1.6,0.8-2.8,0.8
		c-2.7,0-4-1.9-4-6c0-2.3,0.4-4.1,1.2-5.5c0.8-1.4,2-1.9,3.8-1.9c1.3,0,2.3-0.1,3,0.3V24.1z"/>
	<path class="st0" d="M37,23.4V10.8c-2.9,0-4.7,0-6.9,0c-3.4,0-6,0.4-7.7,2.4c-1.7,2-2.6,4.7-2.6,8.2c0,2.9,0.6,5.2,1.9,6.9
		s3.2,2,5.8,2c2.2,0,4-0.4,5.3-2.3l0.1,0v2.2H37V26V23.4z M32.5,24.1c0,0.9-0.4,1.7-1.1,2.3c-0.7,0.7-1.6,0.8-2.8,0.8
		c-2.7,0-4-1.9-4-6c0-2.3,0.4-4.1,1.2-5.5c0.8-1.4,2-1.9,3.8-1.9c1.3,0,2.3-0.1,3,0.3V24.1z"/>
	<path class="st0" d="M48.9,14c-0.6-0.2-1.4-0.2-2.2-0.2c-0.9,0-1.6-0.1-2.1,0.3s-0.8,0.7-0.8,1.3c0,0.6,0.1,1,0.3,1.4
		c0.2,0.3,0.5,0.6,0.9,0.8c0.6,0.3,1.4,0.6,2.3,0.9c0.9,0.2,1.6,0.4,2,0.6c0.4,0.1,1,0.4,1.6,0.7c0.7,0.3,1.2,0.7,1.5,1.1
		c0.9,1,0.9,2.2,0.9,3.7c0,1.9-0.2,3.5-1.6,4.5c-1.4,1.1-3.2,1.1-5.4,1.1c-3.1,0-5.5,0.1-7.1-0.7v-5.4l3.5-0.3v1.9
		c0,1.1,1.1,1.5,3.2,1.5c2.2,0,3.2-0.5,3.2-2.1c0-0.6-0.2-1-0.6-1.4c-0.4-0.4-0.7-0.6-1.1-0.7c-0.4-0.1-0.8-0.3-1.3-0.4
		c-0.5-0.1-1-0.3-1.5-0.4c-0.5-0.1-1-0.3-1.5-0.5s-1.2-0.5-1.8-0.9c-1.3-0.9-2-2.3-2-4.3c0-2,0.7-3.5,2.1-4.6c1.4-1.1,3.2-1,5.4-1
		c2.2,0,4.3-0.1,6.4,1v4.6l-3.5,0.3V15C49.8,14.4,49.5,14.2,48.9,14z"/>
	<path class="st0" d="M148.5,14c-0.6-0.2-1.4-0.2-2.2-0.2c-0.9,0-1.6-0.1-2.1,0.3c-0.5,0.4-0.8,0.7-0.8,1.3c0,0.6,0.1,1,0.3,1.4
		c0.2,0.3,0.5,0.6,0.9,0.8c0.6,0.3,1.4,0.6,2.3,0.9c0.9,0.2,1.6,0.4,2,0.6c0.4,0.1,1,0.4,1.6,0.7c0.7,0.3,1.2,0.7,1.5,1.1
		c0.9,1,0.9,2.2,0.9,3.7c0,1.9-0.2,3.5-1.6,4.5c-1.4,1.1-3.2,1.1-5.4,1.1c-3.1,0-5.5,0.1-7.1-0.7v-5.4l3.5-0.3v1.9
		c0,1.1,1.1,1.5,3.2,1.5s3.2-0.5,3.2-2.1c0-0.6-0.2-1-0.6-1.4c-0.4-0.4-0.7-0.6-1.1-0.7c-0.4-0.1-0.8-0.3-1.3-0.4
		c-0.5-0.1-1-0.3-1.5-0.4c-0.5-0.1-1-0.3-1.5-0.5c-0.6-0.2-1.2-0.5-1.8-0.9c-1.3-0.9-2-2.3-2-4.3c0-2,0.7-3.5,2.1-4.6
		c1.4-1.1,3.2-1,5.4-1c2.2,0,4.3-0.1,6.4,1v4.6l-3.5,0.3V15C149.4,14.4,149.1,14.2,148.5,14z"/>
	<path class="st0" d="M170.1,27.2h-2.9V3.2h-6.9v3l1.4,0.1c0.6,0.1,1,0.5,1,1.1v17.4v1.7v3.8h8.6C170.2,28.9,170.3,28.6,170.1,27.2z
		"/>
	<g>
		<path class="st0" d="M178.6,27.2c-0.9,0-1.5-0.2-1.9-0.7c-0.4-0.5-0.6-1.2-0.6-2.4V13.8h4.2v-3l-4.2,0V6.2h-2.5
			c-0.5,1.4-1.1,2.9-1.7,3.7c-0.6,0.8-1.5,0.8-2.7,0.9h-0.4v3h2.7v10.5c0,5.9,1.2,5.9,6,5.9c1.3,0,1.6,0,2.8,0v-3
			C179.3,27.2,179.3,27.2,178.6,27.2z"/>
	</g>
	<path class="st0" d="M155.1,27.9c0-1.3,1-2.3,2.3-2.3c1.3,0,2.3,1,2.3,2.3c0,1.3-1,2.3-2.3,2.3C156.2,30.3,155.1,29.2,155.1,27.9z"
		/>
	<path class="st0" d="M91.9,10.8v3h1.2c0.4,0,0.6,0.1,0.8,0.3c0.1,0.2,0.2,0.7,0.2,1.1v8.2c0,1.1-0.4,2-1.1,2.7
		c-0.7,0.8-1.7,1.1-2.9,1.1c-1.2,0-2-0.3-2.4-1c-0.4-0.7-0.6-1.7-0.6-3.1V10.8h-4.6v4.3v2.8v6.2c0,4.5,2,6.2,6,6.2
		c2.8,0,4.8-0.5,6.3-2.5v2.5h3.9V26v-4.4V10.8H91.9z"/>
	<g>
		<path class="st0" d="M117.9,29.5 M117.9,24v-0.5v-5.5c0-0.5,0-1.1,0.1-1.7c0.2-2,0.6-3.5,2-4.6c0.6-0.5,0.9-0.7,1.6-0.9h-3.7
			c-0.3,0-0.5,0-0.8,0c-2.5,0-4.1,0-6.1,0c-3.4,0-6,0.4-7.7,2.4s-2.6,4.7-2.6,8.2c0,2.9,0.6,5.2,1.9,6.9c1.3,1.7,3.2,2,5.8,2
			c2.1,0,3.8-0.4,5-1.9v1.2v0.8c0,3.1-0.9,5.5-4.3,5.5c-1.1,0-1.9-0.1-2.7-0.4c-0.7-0.3-0.9-0.6-0.9-1.3v-1.8l-3.5,0.3v5.2
			c1.6,0.8,4.7,1.2,7,1.2c5.6,0,8.2-2.5,8.6-8c0-0.2,0-0.5,0-0.8 M113.4,24.1c0,0.9-0.4,1.7-1.1,2.3c-0.7,0.7-1.6,0.8-2.8,0.8
			c-2.7,0-4-1.9-4-6c0-2.3,0.4-4.1,1.2-5.5c0.8-1.4,2-1.9,3.8-1.9c1.3,0,2.3-0.1,3,0.3V24.1z"/>
	</g>
	<path class="st0" d="M128.9,10.2c2.9,0,8.7,0.9,8.7,9.8c0,7.5-4.2,10.9-9.3,10.9c-5.2,0-8.6-3.3-8.6-10.4
		C119.7,12.4,124.9,10.2,128.9,10.2z M132.9,20.6c0-4.4-1-7-4.2-7c-3.1,0-4.3,2.6-4.3,6.4c0,3.6,0.5,7.5,4.2,7.5
		C131.7,27.5,132.9,24.7,132.9,20.6z"/>
</g>
</svg>
