<svg width="264" height="295" viewBox="0 0 264 295" fill="none" xmlns="http://www.w3.org/2000/svg">
<g clip-path="url(#clip0)">
<path d="M243.72 0H181.98V21.68H243.72V0Z" fill="black"/>
<path d="M243.72 272.54H181.98V294.22H243.72V272.54Z" fill="black"/>
<path d="M243.72 181.69H19.58V203.37H243.72V181.69Z" fill="black"/>
<path d="M81.32 0H19.58V21.68H81.32V0Z" fill="black"/>
<path d="M81.32 272.54H19.58V294.22H81.32V272.54Z" fill="black"/>
<path d="M243.72 90.85H19.58V112.53H243.72V90.85Z" fill="black"/>
<path d="M263.07 21.68H243.72V90.84H263.07V21.68Z" fill="black"/>
<path d="M263.07 203.38H243.72V272.54H263.07V203.38Z" fill="black"/>
<path d="M19.35 203.38H0V272.54H19.35V203.38Z" fill="black"/>
<path d="M181.98 112.53H162.63V181.69H181.98V112.53Z" fill="black"/>
<path d="M100.89 112.53H81.54V181.69H100.89V112.53Z" fill="black"/>
<path d="M181.98 21.68H162.63V90.84H181.98V21.68Z" fill="black"/>
<path d="M181.98 203.38H162.63V272.54H181.98V203.38Z" fill="black"/>
<path d="M100.89 203.38H81.54V272.54H100.89V203.38Z" fill="black"/>
<path d="M20.07 21.69H0.719971V90.85H20.07V21.69Z" fill="black"/>
<path d="M100.89 21.68H81.54V90.84H100.89V21.68Z" fill="black"/>
</g>
<defs>
<clipPath id="clip0">
<rect width="263.07" height="294.22" fill="white"/>
</clipPath>
</defs>
</svg>
