<svg width="487" height="127" viewBox="0 0 487 127" fill="none" xmlns="http://www.w3.org/2000/svg">
<g clip-path="url(#clip0)">
<path d="M306.34 40.67H297.73V82.41H306.34V40.67Z" fill="black"/>
<path d="M340.29 40.6701V82.4101H331.84V91.0201H306.34V82.4101H331.68V40.6701H306.34V32.0601H331.84V40.6701H340.29Z" fill="black"/>
<path d="M357.02 57.5601H349.07V48.9501H357.02V40.6601H365.63V32.0601H390.14V40.6701H365.63V48.9501H373.58V57.5601H365.63V91.0201H357.02V57.5601Z" fill="black"/>
<path d="M385.84 48.9501H393.79V40.6601H402.39V32.0601H426.91V40.6701H402.39V48.9501H410.35V57.5601H402.39V91.0201H393.79V57.5601H385.84V48.9501Z" fill="black"/>
<path d="M94.71 41.5V81.58H119V41.5H94.71ZM94.71 41.5V81.58H119V41.5H94.71ZM0 0V126.74H486.93V0H0ZM241.22 111H11.09V15.74H241.22V111ZM476.54 111H243.46V15.74H476.54V111ZM237.88 19H14.73V107.74H237.88V19ZM127.31 81.58H119.2V89.85H94.71V81.58H86.44V41.5H94.71V33.23H119.2V41.5H127.31V81.58ZM167.86 89.85H159.59V57.74H143.37V89.87H135.1V49.47H159.59V57.47H167.86V89.85ZM119 41.5H94.71V81.58H119V41.5Z" fill="black"/>
<path d="M306.34 40.67H297.73V82.41H306.34V40.67Z" fill="#FCFF02"/>
<path d="M340.29 40.6701V82.4101H331.84V91.0201H306.34V82.4101H331.68V40.6701H306.34V32.0601H331.84V40.6701H340.29Z" fill="#FCFF02"/>
<path d="M365.63 48.9501H373.58V57.5601H365.63V91.0201H357.02V57.5601H349.07V48.9501H357.02V40.6601H365.63V32.0601H390.14V40.6701H365.63V48.9501Z" fill="#FCFF02"/>
<path d="M402.39 40.6701V48.9501H410.35V57.5601H402.39V91.0201H393.79V57.5601H385.84V48.9501H393.79V40.6601H402.39V32.0601H426.91V40.6701H402.39Z" fill="#FCFF02"/>
<path d="M94.71 41.5V81.58H119V41.5H94.71ZM94.71 41.5V81.58H119V41.5H94.71ZM14.71 19V107.78H237.88V19H14.71ZM127.29 81.58H119.2V89.85H94.71V81.58H86.44V41.5H94.71V33.23H119.2V41.5H127.31L127.29 81.58ZM167.84 89.85H159.57V57.74H143.37V89.87H135.1V49.47H159.59V57.47H167.86L167.84 89.85ZM119 41.5H94.71V81.58H119V41.5Z" fill="#FCFF02"/>
<path d="M94.71 41.5V81.58H119V41.5H94.71ZM94.71 41.5V81.58H119V41.5H94.71ZM14.71 19V107.78H237.88V19H14.71ZM127.29 81.58H119.2V89.85H94.71V81.58H86.44V41.5H94.71V33.23H119.2V41.5H127.31L127.29 81.58ZM167.84 89.85H159.57V57.74H143.37V89.87H135.1V49.47H159.59V57.47H167.86L167.84 89.85ZM119 41.5H94.71V81.58H119V41.5Z" fill="black"/>
<path d="M331.84 32.0601H306.34V40.6701H331.84V32.0601Z" fill="black"/>
<path d="M331.84 82.41H306.34V91.02H331.84V82.41Z" fill="black"/>
<path d="M340.29 40.67H331.68V82.41H340.29V40.67Z" fill="black"/>
<path d="M306.34 40.67H297.73V82.41H306.34V40.67Z" fill="black"/>
<path d="M390.14 32.0601H365.63V40.6701H390.14V32.0601Z" fill="black"/>
<path d="M373.58 48.95H349.07V57.56H373.58V48.95Z" fill="black"/>
<path d="M365.63 40.66H357.02V91.02H365.63V40.66Z" fill="black"/>
<path d="M426.91 32.0601H402.39V40.6701H426.91V32.0601Z" fill="black"/>
<path d="M410.35 48.95H385.84V57.56H410.35V48.95Z" fill="black"/>
<path d="M402.39 40.66H393.79V91.02H402.39V40.66Z" fill="black"/>
</g>
<defs>
<clipPath id="clip0">
<rect width="486.93" height="126.74" fill="white"/>
</clipPath>
</defs>
</svg>
