<svg width="288" height="287" viewBox="0 0 288 287" fill="none" xmlns="http://www.w3.org/2000/svg">
<g clip-path="url(#clip0)">
<path d="M241.77 0H0V15.11H241.77V0Z" fill="black"/>
<path d="M227.08 180.73H47.23V195.84H227.08V180.73Z" fill="black"/>
<path d="M189.36 217.16H81.65V224.72H189.36V217.16Z" fill="black"/>
<path d="M189.36 231.7H81.65V239.26H189.36V231.7Z" fill="black"/>
<path d="M62.33 180.95H47.22V286.52H62.33V180.95Z" fill="black"/>
<path d="M227.07 180.94H211.96V286.51H227.07V180.94Z" fill="black"/>
<path d="M287.09 271.4H0V286.51H287.09V271.4Z" fill="black"/>
<path d="M15.11 0H0V286.51H15.11V0Z" fill="black"/>
<path d="M256.89 15.11H241.78V30.22H256.89V15.11Z" fill="black"/>
<path d="M272 30.22H256.89V45.33H272V30.22Z" fill="black"/>
<path d="M287.11 45.33H272V286.52H287.11V45.33Z" fill="black"/>
<path d="M47.23 15.11V105.18H227.08V15.11H47.23ZM191.85 81.42H177V22.68H191.84L191.85 81.42Z" fill="black"/>
</g>
<defs>
<clipPath id="clip0">
<rect width="287.11" height="286.52" fill="white"/>
</clipPath>
</defs>
</svg>
