<svg width="567" height="237" viewBox="0 0 567 237" fill="none" xmlns="http://www.w3.org/2000/svg">
<g clip-path="url(#clip0)">
<path d="M376.8 211.71H191.99V235.16H376.8V211.71Z" fill="black"/>
<path d="M376.8 45.51H191.99V68.96H376.8V45.51Z" fill="black"/>
<path d="M376.8 166.1H191.99V189.55H376.8V166.1Z" fill="black"/>
<path d="M401.63 0H167.16V24.83H401.63V0Z" fill="black"/>
<path d="M401.65 211.71H376.82V236.54H401.65V211.71Z" fill="black"/>
<path d="M191.99 211.71H167.16V236.54H191.99V211.71Z" fill="black"/>
<path d="M426.47 24.8199H401.64V211.7H426.47V24.8199Z" fill="black"/>
<path d="M376.82 45.51H351.99V189.54H376.82V45.51Z" fill="black"/>
<path d="M216.82 46.25H191.99V190.28H216.82V46.25Z" fill="black"/>
<path d="M167.17 24.8199H142.34V211.7H167.17V24.8199Z" fill="black"/>
<path d="M307.4 141.76H264.85V155.77H307.4V141.76Z" fill="black"/>
<path d="M321.4 127.75H307.39V141.76H321.4V127.75Z" fill="black"/>
<path d="M319.21 89.41H305.2V103.42H319.21V89.41Z" fill="black"/>
<path d="M269.8 89.41H255.79V103.42H269.8V89.41Z" fill="black"/>
<path d="M264.86 127.75H250.85V141.76H264.86V127.75Z" fill="black"/>
<path d="M537.59 209.04H431.65V222.48H537.59V209.04Z" fill="black"/>
<path d="M537.59 113.78H431.65V127.22H537.59V113.78Z" fill="black"/>
<path d="M537.59 182.9H431.65V196.34H537.59V182.9Z" fill="black"/>
<path d="M551.83 87.6899H537.6V101.92H551.83V87.6899Z" fill="black"/>
<path d="M551.83 209.04H537.6V223.27H551.83V209.04Z" fill="black"/>
<path d="M431.66 209.04H417.43V223.27H431.66V209.04Z" fill="black"/>
<path d="M566.06 101.92H551.83V209.04H566.06V101.92Z" fill="black"/>
<path d="M537.59 113.78H523.36V196.34H537.59V113.78Z" fill="black"/>
<path d="M445.88 114.2H431.65V196.76H445.88V114.2Z" fill="black"/>
<path d="M417.43 101.92H403.2V209.04H417.43V101.92Z" fill="black"/>
<path d="M537.59 87.6899H417.43V101.92H537.59V87.6899Z" fill="black"/>
<path d="M497.8 168.94H473.41V176.97H497.8V168.94Z" fill="black"/>
<path d="M505.83 160.92H497.8V168.95H505.83V160.92Z" fill="black"/>
<path d="M504.57 138.93H496.54V146.96H504.57V138.93Z" fill="black"/>
<path d="M476.26 138.93H468.23V146.96H476.26V138.93Z" fill="black"/>
<path d="M473.42 160.92H465.39V168.95H473.42V160.92Z" fill="black"/>
<path d="M134.39 211.43H28.45V224.87H134.39V211.43Z" fill="black"/>
<path d="M134.39 116.17H28.45V129.61H134.39V116.17Z" fill="black"/>
<path d="M134.39 185.29H28.45V198.73H134.39V185.29Z" fill="black"/>
<path d="M148.63 90.08H134.4V104.31H148.63V90.08Z" fill="black"/>
<path d="M148.63 211.43H134.4V225.66H148.63V211.43Z" fill="black"/>
<path d="M28.46 211.43H14.23V225.66H28.46V211.43Z" fill="black"/>
<path d="M162.86 104.31H148.63V211.43H162.86V104.31Z" fill="black"/>
<path d="M134.39 116.17H120.16V198.73H134.39V116.17Z" fill="black"/>
<path d="M42.68 116.59H28.45V199.15H42.68V116.59Z" fill="black"/>
<path d="M14.23 104.31H0V211.43H14.23V104.31Z" fill="black"/>
<path d="M134.39 90.08H14.23V104.31H134.39V90.08Z" fill="black"/>
<path d="M94.61 171.34H70.22V179.37H94.61V171.34Z" fill="black"/>
<path d="M102.63 163.31H94.6V171.34H102.63V163.31Z" fill="black"/>
<path d="M101.37 141.33H93.34V149.36H101.37V141.33Z" fill="black"/>
<path d="M73.06 141.33H65.03V149.36H73.06V141.33Z" fill="black"/>
<path d="M70.21 163.31H62.18V171.34H70.21V163.31Z" fill="black"/>
</g>
<defs>
<clipPath id="clip0">
<rect width="566.06" height="236.54" fill="white"/>
</clipPath>
</defs>
</svg>
