<svg width="391" height="334" viewBox="0 0 391 334" fill="none" xmlns="http://www.w3.org/2000/svg">
<g clip-path="url(#clip0)">
<path d="M159.9 0H139.91V19.99H159.9V0Z" fill="black"/>
<path d="M139.91 19.99H119.92V39.98H139.91V19.99Z" fill="black"/>
<path d="M119.92 39.97H99.93V59.96H119.92V39.97Z" fill="black"/>
<path d="M99.93 59.96H79.94V79.95H99.93V59.96Z" fill="black"/>
<path d="M79.95 79.95H59.96V99.94H79.95V79.95Z" fill="black"/>
<path d="M59.96 99.9301H39.97V119.92H59.96V99.9301Z" fill="black"/>
<path d="M39.97 119.92H19.98V139.91H39.97V119.92Z" fill="black"/>
<path d="M19.99 139.91H0V159.9H19.99V139.91Z" fill="black"/>
<path d="M39.97 159.89H19.98V179.88H39.97V159.89Z" fill="black"/>
<path d="M59.96 179.33H39.97V199.32H59.96V179.33Z" fill="black"/>
<path d="M73.15 142.14H53.16V162.13H73.15V142.14Z" fill="black"/>
<path d="M93.14 122.16H73.15V142.15H93.14V122.16Z" fill="black"/>
<path d="M113.13 102.17H93.14V122.16H113.13V102.17Z" fill="black"/>
<path d="M133.11 82.1801H113.12V102.17H133.11V82.1801Z" fill="black"/>
<path d="M153.1 62.2H133.11V82.19H153.1V62.2Z" fill="black"/>
<path d="M79.95 198.88H59.96V218.87H79.95V198.88Z" fill="black"/>
<path d="M99.93 218.7H79.94V238.69H99.93V218.7Z" fill="black"/>
<path d="M119.92 238.68H99.93V258.67H119.92V238.68Z" fill="black"/>
<path d="M139.91 258.67H119.92V278.66H139.91V258.67Z" fill="black"/>
<path d="M159.9 278.66H139.91V298.65H159.9V278.66Z" fill="black"/>
<path d="M179.88 298.65H159.89V318.64H179.88V298.65Z" fill="black"/>
<path d="M198.33 278.66H178.34V298.65H198.33V278.66Z" fill="black"/>
<path d="M217.51 258.67H197.52V278.66H217.51V258.67Z" fill="black"/>
<path d="M179.88 19.99H159.89V39.98H179.88V19.99Z" fill="black"/>
<path d="M199.87 39.97H179.88V59.96H199.87V39.97Z" fill="black"/>
<path d="M219.86 59.96H199.87V79.95H219.86V59.96Z" fill="black"/>
<path d="M239.84 79.95H219.85V99.94H239.84V79.95Z" fill="black"/>
<path d="M283.478 110.01L276.799 128.852L295.64 135.531L302.319 116.69L283.478 110.01Z" fill="black"/>
<path d="M264.637 103.339L257.957 122.18L276.798 128.859L283.478 110.018L264.637 103.339Z" fill="black"/>
<path d="M245.786 96.6508L239.107 115.492L257.948 122.171L264.627 103.33L245.786 96.6508Z" fill="black"/>
<path d="M226.955 89.9759L220.275 108.817L239.116 115.496L245.796 96.6553L226.955 89.9759Z" fill="black"/>
<path d="M319.935 186.551L313.256 205.392L332.097 212.072L338.776 193.231L319.935 186.551Z" fill="black"/>
<path d="M332.783 212.33L326.104 231.171L365.322 245.074L372.001 226.233L332.783 212.33Z" fill="black"/>
<path d="M307.788 161.039L301.109 179.88L319.95 186.559L326.629 167.718L307.788 161.039Z" fill="black"/>
<path d="M352.41 219.273L316.721 319.944L354.95 333.496L390.639 232.825L352.41 219.273Z" fill="black"/>
<path d="M295.622 135.533L288.943 154.374L307.784 161.053L314.463 142.212L295.622 135.533Z" fill="black"/>
<path d="M201.435 102.142L194.756 120.983L213.597 127.662L220.276 108.821L201.435 102.142Z" fill="black"/>
<path d="M175.916 114.299L169.237 133.14L188.078 139.82L194.757 120.979L175.916 114.299Z" fill="black"/>
<path d="M134.727 170.607L128.047 189.448L146.888 196.127L153.568 177.286L134.727 170.607Z" fill="black"/>
<path d="M146.893 196.11L140.214 214.951L159.055 221.63L165.735 202.789L146.893 196.11Z" fill="black"/>
<path d="M246.576 273.882L239.896 292.723L354.932 333.504L361.611 314.663L246.576 273.882Z" fill="black"/>
<path d="M159.066 221.64L152.387 240.481L171.228 247.161L177.907 228.32L159.066 221.64Z" fill="black"/>
<path d="M177.901 228.315L171.221 247.156L246.576 273.871L253.256 255.03L177.901 228.315Z" fill="black"/>
<path d="M150.382 126.459L140.365 154.716L159.206 161.395L169.223 133.138L150.382 126.459Z" fill="black"/>
<path d="M216.771 139.377L210.091 158.218L228.932 164.897L235.612 146.056L216.771 139.377Z" fill="black"/>
<path d="M228.914 164.902L222.234 183.743L241.075 190.423L247.755 171.581L228.914 164.902Z" fill="black"/>
<path d="M191.257 151.547L184.578 170.388L203.419 177.067L210.098 158.226L191.257 151.547Z" fill="black"/>
<path d="M204.451 174.117L197.771 192.958L216.612 199.637L223.292 180.796L204.451 174.117Z" fill="black"/>
<path d="M223.293 180.788L216.613 199.63L235.454 206.309L242.134 187.468L223.293 180.788Z" fill="black"/>
<path d="M242.12 187.473L235.441 206.314L254.282 212.993L260.961 194.152L242.12 187.473Z" fill="black"/>
<path d="M101.119 137.482L94.44 156.323L197.778 192.958L204.458 174.117L101.119 137.482Z" fill="black"/>
</g>
<defs>
<clipPath id="clip0">
<rect width="390.63" height="333.5" fill="white"/>
</clipPath>
</defs>
</svg>
